<?xml version="1.0" encoding="UTF-8" standalone="no"?>
<svg
   xmlns:dc="http://purl.org/dc/elements/1.1/"
   xmlns:cc="http://creativecommons.org/ns#"
   xmlns:rdf="http://www.w3.org/1999/02/22-rdf-syntax-ns#"
   xmlns:svg="http://www.w3.org/2000/svg"
   xmlns="http://www.w3.org/2000/svg"
   xmlns:sodipodi="http://sodipodi.sourceforge.net/DTD/sodipodi-0.dtd"
   xmlns:inkscape="http://www.inkscape.org/namespaces/inkscape"
   width="400"
   height="400"
   viewBox="0 0 105.83333 105.83334"
   version="1.1"
   id="svg8"
   sodipodi:docname="chessboard_dark.svg"
   inkscape:version="1.0 (4035a4fb49, 2020-05-01)">
  <defs
     id="defs2" />
  <sodipodi:namedview
     id="base"
     pagecolor="#ffffff"
     bordercolor="#666666"
     borderopacity="1.0"
     inkscape:pageopacity="0.0"
     inkscape:pageshadow="2"
     inkscape:zoom="2.0000001"
     inkscape:cx="187.88812"
     inkscape:cy="196.30742"
     inkscape:document-units="mm"
     inkscape:current-layer="layer1"
     showgrid="false"
     units="px"
     inkscape:snap-page="true"
     inkscape:snap-bbox="true"
     inkscape:bbox-nodes="true"
     inkscape:window-width="1920"
     inkscape:window-height="1017"
     inkscape:window-x="-8"
     inkscape:window-y="-8"
     inkscape:window-maximized="1"
     inkscape:snap-nodes="false"
     inkscape:document-rotation="0" />
  <metadata
     id="metadata5">
    <rdf:RDF>
      <cc:Work
         rdf:about="">
        <dc:format>image/svg+xml</dc:format>
        <dc:type
           rdf:resource="http://purl.org/dc/dcmitype/StillImage" />
        <dc:title />
      </cc:Work>
    </rdf:RDF>
  </metadata>
  <g
     inkscape:label="Layer 1"
     inkscape:groupmode="layer"
     id="layer1"
     transform="translate(0,-191.16665)">
    <rect
       style="opacity:1;vector-effect:none;fill:#f0d9b5;fill-opacity:1;fill-rule:nonzero;stroke:none;stroke-width:0.52916664;stroke-linecap:butt;stroke-linejoin:miter;stroke-miterlimit:4;stroke-dasharray:none;stroke-dashoffset:0;stroke-opacity:1;paint-order:normal"
       id="rect815"
       width="105.83333"
       height="105.83333"
       x="0"
       y="191.16666"
       ry="0" />
    <g
       id="g977"
       style="fill:#b58863;fill-opacity:1">
      <rect
         y="283.77081"
         x="0"
         height="13.229167"
         width="13.229167"
         id="rect817"
         style="opacity:1;vector-effect:none;fill:#b58863;fill-opacity:1;fill-rule:nonzero;stroke:none;stroke-width:0.52916664;stroke-linecap:butt;stroke-linejoin:miter;stroke-miterlimit:4;stroke-dasharray:none;stroke-dashoffset:0;stroke-opacity:1;paint-order:normal" />
      <rect
         y="283.77081"
         x="26.458334"
         height="13.229167"
         width="13.229167"
         id="rect821"
         style="opacity:1;vector-effect:none;fill:#b58863;fill-opacity:1;fill-rule:nonzero;stroke:none;stroke-width:0.52916664;stroke-linecap:butt;stroke-linejoin:miter;stroke-miterlimit:4;stroke-dasharray:none;stroke-dashoffset:0;stroke-opacity:1;paint-order:normal" />
      <rect
         style="opacity:1;vector-effect:none;fill:#b58863;fill-opacity:1;fill-rule:nonzero;stroke:none;stroke-width:0.52916664;stroke-linecap:butt;stroke-linejoin:miter;stroke-miterlimit:4;stroke-dasharray:none;stroke-dashoffset:0;stroke-opacity:1;paint-order:normal"
         id="rect825"
         width="13.229167"
         height="13.229167"
         x="52.916668"
         y="283.77081" />
      <rect
         style="opacity:1;vector-effect:none;fill:#b58863;fill-opacity:1;fill-rule:nonzero;stroke:none;stroke-width:0.52916664;stroke-linecap:butt;stroke-linejoin:miter;stroke-miterlimit:4;stroke-dasharray:none;stroke-dashoffset:0;stroke-opacity:1;paint-order:normal"
         id="rect829"
         width="13.229167"
         height="13.229167"
         x="79.375"
         y="283.77081" />
      <rect
         y="270.54166"
         x="13.229167"
         height="13.229167"
         width="13.229167"
         id="rect835"
         style="opacity:1;vector-effect:none;fill:#b58863;fill-opacity:1;fill-rule:nonzero;stroke:none;stroke-width:0.52916664;stroke-linecap:butt;stroke-linejoin:miter;stroke-miterlimit:4;stroke-dasharray:none;stroke-dashoffset:0;stroke-opacity:1;paint-order:normal" />
      <rect
         y="270.54166"
         x="39.6875"
         height="13.229167"
         width="13.229167"
         id="rect839"
         style="opacity:1;vector-effect:none;fill:#b58863;fill-opacity:1;fill-rule:nonzero;stroke:none;stroke-width:0.52916664;stroke-linecap:butt;stroke-linejoin:miter;stroke-miterlimit:4;stroke-dasharray:none;stroke-dashoffset:0;stroke-opacity:1;paint-order:normal" />
      <rect
         style="opacity:1;vector-effect:none;fill:#b58863;fill-opacity:1;fill-rule:nonzero;stroke:none;stroke-width:0.52916664;stroke-linecap:butt;stroke-linejoin:miter;stroke-miterlimit:4;stroke-dasharray:none;stroke-dashoffset:0;stroke-opacity:1;paint-order:normal"
         id="rect843"
         width="13.229167"
         height="13.229167"
         x="66.145836"
         y="270.54166" />
      <rect
         style="opacity:1;vector-effect:none;fill:#b58863;fill-opacity:1;fill-rule:nonzero;stroke:none;stroke-width:0.52916664;stroke-linecap:butt;stroke-linejoin:miter;stroke-miterlimit:4;stroke-dasharray:none;stroke-dashoffset:0;stroke-opacity:1;paint-order:normal"
         id="rect847"
         width="13.229167"
         height="13.229167"
         x="92.604172"
         y="270.54166" />
      <rect
         style="opacity:1;vector-effect:none;fill:#b58863;fill-opacity:1;fill-rule:nonzero;stroke:none;stroke-width:0.52916664;stroke-linecap:butt;stroke-linejoin:miter;stroke-miterlimit:4;stroke-dasharray:none;stroke-dashoffset:0;stroke-opacity:1;paint-order:normal"
         id="rect859"
         width="13.229167"
         height="13.229167"
         x="0"
         y="257.3125" />
      <rect
         style="opacity:1;vector-effect:none;fill:#b58863;fill-opacity:1;fill-rule:nonzero;stroke:none;stroke-width:0.52916664;stroke-linecap:butt;stroke-linejoin:miter;stroke-miterlimit:4;stroke-dasharray:none;stroke-dashoffset:0;stroke-opacity:1;paint-order:normal"
         id="rect861"
         width="13.229167"
         height="13.229167"
         x="26.458334"
         y="257.3125" />
      <rect
         y="257.3125"
         x="52.916668"
         height="13.229167"
         width="13.229167"
         id="rect863"
         style="opacity:1;vector-effect:none;fill:#b58863;fill-opacity:1;fill-rule:nonzero;stroke:none;stroke-width:0.52916664;stroke-linecap:butt;stroke-linejoin:miter;stroke-miterlimit:4;stroke-dasharray:none;stroke-dashoffset:0;stroke-opacity:1;paint-order:normal" />
      <rect
         y="257.3125"
         x="79.375"
         height="13.229167"
         width="13.229167"
         id="rect865"
         style="opacity:1;vector-effect:none;fill:#b58863;fill-opacity:1;fill-rule:nonzero;stroke:none;stroke-width:0.52916664;stroke-linecap:butt;stroke-linejoin:miter;stroke-miterlimit:4;stroke-dasharray:none;stroke-dashoffset:0;stroke-opacity:1;paint-order:normal" />
      <rect
         style="opacity:1;vector-effect:none;fill:#b58863;fill-opacity:1;fill-rule:nonzero;stroke:none;stroke-width:0.52916664;stroke-linecap:butt;stroke-linejoin:miter;stroke-miterlimit:4;stroke-dasharray:none;stroke-dashoffset:0;stroke-opacity:1;paint-order:normal"
         id="rect867"
         width="13.229167"
         height="13.229167"
         x="13.229167"
         y="244.08334" />
      <rect
         style="opacity:1;vector-effect:none;fill:#b58863;fill-opacity:1;fill-rule:nonzero;stroke:none;stroke-width:0.52916664;stroke-linecap:butt;stroke-linejoin:miter;stroke-miterlimit:4;stroke-dasharray:none;stroke-dashoffset:0;stroke-opacity:1;paint-order:normal"
         id="rect869"
         width="13.229167"
         height="13.229167"
         x="39.6875"
         y="244.08334" />
      <rect
         y="244.08334"
         x="66.145836"
         height="13.229167"
         width="13.229167"
         id="rect871"
         style="opacity:1;vector-effect:none;fill:#b58863;fill-opacity:1;fill-rule:nonzero;stroke:none;stroke-width:0.52916664;stroke-linecap:butt;stroke-linejoin:miter;stroke-miterlimit:4;stroke-dasharray:none;stroke-dashoffset:0;stroke-opacity:1;paint-order:normal" />
      <rect
         y="244.08334"
         x="92.604172"
         height="13.229167"
         width="13.229167"
         id="rect873"
         style="opacity:1;vector-effect:none;fill:#b58863;fill-opacity:1;fill-rule:nonzero;stroke:none;stroke-width:0.52916664;stroke-linecap:butt;stroke-linejoin:miter;stroke-miterlimit:4;stroke-dasharray:none;stroke-dashoffset:0;stroke-opacity:1;paint-order:normal" />
      <rect
         y="230.85419"
         x="0"
         height="13.229167"
         width="13.229167"
         id="rect877"
         style="opacity:1;vector-effect:none;fill:#b58863;fill-opacity:1;fill-rule:nonzero;stroke:none;stroke-width:0.52916664;stroke-linecap:butt;stroke-linejoin:miter;stroke-miterlimit:4;stroke-dasharray:none;stroke-dashoffset:0;stroke-opacity:1;paint-order:normal" />
      <rect
         y="230.85419"
         x="26.458334"
         height="13.229167"
         width="13.229167"
         id="rect879"
         style="opacity:1;vector-effect:none;fill:#b58863;fill-opacity:1;fill-rule:nonzero;stroke:none;stroke-width:0.52916664;stroke-linecap:butt;stroke-linejoin:miter;stroke-miterlimit:4;stroke-dasharray:none;stroke-dashoffset:0;stroke-opacity:1;paint-order:normal" />
      <rect
         style="opacity:1;vector-effect:none;fill:#b58863;fill-opacity:1;fill-rule:nonzero;stroke:none;stroke-width:0.52916664;stroke-linecap:butt;stroke-linejoin:miter;stroke-miterlimit:4;stroke-dasharray:none;stroke-dashoffset:0;stroke-opacity:1;paint-order:normal"
         id="rect881"
         width="13.229167"
         height="13.229167"
         x="52.916668"
         y="230.85419" />
      <rect
         style="opacity:1;vector-effect:none;fill:#b58863;fill-opacity:1;fill-rule:nonzero;stroke:none;stroke-width:0.52916664;stroke-linecap:butt;stroke-linejoin:miter;stroke-miterlimit:4;stroke-dasharray:none;stroke-dashoffset:0;stroke-opacity:1;paint-order:normal"
         id="rect883"
         width="13.229167"
         height="13.229167"
         x="79.375"
         y="230.85419" />
      <rect
         y="217.62503"
         x="13.229167"
         height="13.229167"
         width="13.229167"
         id="rect885"
         style="opacity:1;vector-effect:none;fill:#b58863;fill-opacity:1;fill-rule:nonzero;stroke:none;stroke-width:0.52916664;stroke-linecap:butt;stroke-linejoin:miter;stroke-miterlimit:4;stroke-dasharray:none;stroke-dashoffset:0;stroke-opacity:1;paint-order:normal" />
      <rect
         y="217.62503"
         x="39.6875"
         height="13.229167"
         width="13.229167"
         id="rect887"
         style="opacity:1;vector-effect:none;fill:#b58863;fill-opacity:1;fill-rule:nonzero;stroke:none;stroke-width:0.52916664;stroke-linecap:butt;stroke-linejoin:miter;stroke-miterlimit:4;stroke-dasharray:none;stroke-dashoffset:0;stroke-opacity:1;paint-order:normal" />
      <rect
         style="opacity:1;vector-effect:none;fill:#b58863;fill-opacity:1;fill-rule:nonzero;stroke:none;stroke-width:0.52916664;stroke-linecap:butt;stroke-linejoin:miter;stroke-miterlimit:4;stroke-dasharray:none;stroke-dashoffset:0;stroke-opacity:1;paint-order:normal"
         id="rect889"
         width="13.229167"
         height="13.229167"
         x="66.145836"
         y="217.62503" />
      <rect
         style="opacity:1;vector-effect:none;fill:#b58863;fill-opacity:1;fill-rule:nonzero;stroke:none;stroke-width:0.52916664;stroke-linecap:butt;stroke-linejoin:miter;stroke-miterlimit:4;stroke-dasharray:none;stroke-dashoffset:0;stroke-opacity:1;paint-order:normal"
         id="rect891"
         width="13.229167"
         height="13.229167"
         x="92.604172"
         y="217.62503" />
      <rect
         style="opacity:1;vector-effect:none;fill:#b58863;fill-opacity:1;fill-rule:nonzero;stroke:none;stroke-width:0.52916664;stroke-linecap:butt;stroke-linejoin:miter;stroke-miterlimit:4;stroke-dasharray:none;stroke-dashoffset:0;stroke-opacity:1;paint-order:normal"
         id="rect895"
         width="13.229167"
         height="13.229167"
         x="0"
         y="204.39587" />
      <rect
         style="opacity:1;vector-effect:none;fill:#b58863;fill-opacity:1;fill-rule:nonzero;stroke:none;stroke-width:0.52916664;stroke-linecap:butt;stroke-linejoin:miter;stroke-miterlimit:4;stroke-dasharray:none;stroke-dashoffset:0;stroke-opacity:1;paint-order:normal"
         id="rect897"
         width="13.229167"
         height="13.229167"
         x="26.458334"
         y="204.39587" />
      <rect
         y="204.39587"
         x="52.916668"
         height="13.229167"
         width="13.229167"
         id="rect899"
         style="opacity:1;vector-effect:none;fill:#b58863;fill-opacity:1;fill-rule:nonzero;stroke:none;stroke-width:0.52916664;stroke-linecap:butt;stroke-linejoin:miter;stroke-miterlimit:4;stroke-dasharray:none;stroke-dashoffset:0;stroke-opacity:1;paint-order:normal" />
      <rect
         y="204.39587"
         x="79.375"
         height="13.229167"
         width="13.229167"
         id="rect901"
         style="opacity:1;vector-effect:none;fill:#b58863;fill-opacity:1;fill-rule:nonzero;stroke:none;stroke-width:0.52916664;stroke-linecap:butt;stroke-linejoin:miter;stroke-miterlimit:4;stroke-dasharray:none;stroke-dashoffset:0;stroke-opacity:1;paint-order:normal" />
      <rect
         style="opacity:1;vector-effect:none;fill:#b58863;fill-opacity:1;fill-rule:nonzero;stroke:none;stroke-width:0.52916664;stroke-linecap:butt;stroke-linejoin:miter;stroke-miterlimit:4;stroke-dasharray:none;stroke-dashoffset:0;stroke-opacity:1;paint-order:normal"
         id="rect903"
         width="13.229167"
         height="13.229167"
         x="13.229167"
         y="191.16672" />
      <rect
         style="opacity:1;vector-effect:none;fill:#b58863;fill-opacity:1;fill-rule:nonzero;stroke:none;stroke-width:0.52916664;stroke-linecap:butt;stroke-linejoin:miter;stroke-miterlimit:4;stroke-dasharray:none;stroke-dashoffset:0;stroke-opacity:1;paint-order:normal"
         id="rect905"
         width="13.229167"
         height="13.229167"
         x="39.6875"
         y="191.16672" />
      <rect
         y="191.16672"
         x="66.145836"
         height="13.229167"
         width="13.229167"
         id="rect907"
         style="opacity:1;vector-effect:none;fill:#b58863;fill-opacity:1;fill-rule:nonzero;stroke:none;stroke-width:0.52916664;stroke-linecap:butt;stroke-linejoin:miter;stroke-miterlimit:4;stroke-dasharray:none;stroke-dashoffset:0;stroke-opacity:1;paint-order:normal" />
      <rect
         y="191.16672"
         x="92.604172"
         height="13.229167"
         width="13.229167"
         id="rect909"
         style="opacity:1;vector-effect:none;fill:#b58863;fill-opacity:1;fill-rule:nonzero;stroke:none;stroke-width:0.52916664;stroke-linecap:butt;stroke-linejoin:miter;stroke-miterlimit:4;stroke-dasharray:none;stroke-dashoffset:0;stroke-opacity:1;paint-order:normal" />
    </g>
    <g
       id="g898">
      <path
         d="m 25.850817,295.62956 q 0,0.30254 -0.139073,0.48675 -0.139074,0.18299 -0.373302,0.18299 -0.250087,0 -0.386721,-0.17689 l -0.01098,0.15249 h -0.207389 v -1.87382 h 0.225689 v 0.69902 q 0.136633,-0.16957 0.376961,-0.16957 0.240328,0 0.37696,0.18177 0.137854,0.18178 0.137854,0.49774 z m -0.225689,-0.0256 q 0,-0.23056 -0.08906,-0.35622 -0.08906,-0.12565 -0.256187,-0.12565 -0.223248,0 -0.320844,0.20739 v 0.57093 q 0.103695,0.20739 0.323284,0.20739 0.162252,0 0.252527,-0.12566 0.09028,-0.12565 0.09028,-0.37818 z"
         style="font-style:normal;font-variant:normal;font-weight:normal;font-stretch:normal;font-size:medium;line-height:1.25;font-family:roboto;-inkscape-font-specification:roboto;letter-spacing:10.9934px;word-spacing:0px;fill:#b58863;fill-opacity:1;stroke:none;stroke-width:0.148828"
         id="path985"
         inkscape:connector-curvature="0" />
      <path
         d="m 51.196771,295.60394 q 0,-0.30377 0.143953,-0.48798 0.143952,-0.18543 0.37696,-0.18543 0.231788,0 0.367202,0.15859 v -0.68804 h 0.225688 v 1.87383 h -0.207389 l -0.01098,-0.14152 q -0.135413,0.16591 -0.376961,0.16591 -0.229349,0 -0.374521,-0.18787 -0.143953,-0.18787 -0.143953,-0.49042 z m 0.225688,0.0256 q 0,0.22447 0.09271,0.35135 0.09271,0.12687 0.256188,0.12687 0.214709,0 0.313524,-0.19275 v -0.60632 q -0.101256,-0.18664 -0.311085,-0.18664 -0.165912,0 -0.258627,0.12809 -0.09271,0.12809 -0.09271,0.3794 z"
         style="font-style:normal;font-variant:normal;font-weight:normal;font-stretch:normal;font-size:medium;line-height:1.25;font-family:roboto;-inkscape-font-specification:roboto;letter-spacing:10.9934px;word-spacing:0px;fill:#b58863;fill-opacity:1;stroke:none;stroke-width:0.148828"
         id="path989"
         inkscape:connector-curvature="0" />
      <path
         d="m 78.302551,296.2988 v -1.14553 h -0.20861 v -0.17445 h 0.20861 v -0.13541 q 0,-0.21228 0.113454,-0.32817 0.113455,-0.11589 0.320844,-0.11589 0.07807,0 0.154932,0.0208 l -0.0122,0.18298 q -0.05734,-0.011 -0.121994,-0.011 -0.109794,0 -0.169571,0.0647 -0.05978,0.0634 -0.05978,0.183 v 0.13907 h 0.281805 v 0.17445 h -0.281805 v 1.14552 z"
         style="font-style:normal;font-variant:normal;font-weight:normal;font-stretch:normal;font-size:medium;line-height:1.25;font-family:roboto;-inkscape-font-specification:roboto;letter-spacing:10.9934px;word-spacing:0px;fill:#b58863;fill-opacity:1;stroke:none;stroke-width:0.148828"
         id="path993"
         inkscape:connector-curvature="0" />
      <path
         d="m 104.44417,295.14866 q 0.15005,-0.18421 0.39038,-0.18421 0.41844,0 0.4221,0.47211 v 0.87226 h -0.22569 v -0.87347 q -7.5e-4,-0.14274 -0.0658,-0.21105 -0.0634,-0.0683 -0.19885,-0.0683 -0.10979,0 -0.19275,0.0586 -0.083,0.0586 -0.12932,0.15372 v 0.94057 h -0.22569 v -1.87383 h 0.22569 z"
         style="font-style:normal;font-variant:normal;font-weight:normal;font-stretch:normal;font-size:medium;line-height:1.25;font-family:roboto;-inkscape-font-specification:roboto;letter-spacing:10.9934px;word-spacing:0px;fill:#b58863;fill-opacity:1;stroke:none;stroke-width:0.148828"
         id="path997"
         inkscape:connector-curvature="0" />
      <path
         d="m 1.8429092,192.4449 q 0,0.13825 -0.073564,0.24606 -0.072296,0.10781 -0.1965936,0.1687 0.1445915,0.0622 0.2283023,0.18137 0.084979,0.11922 0.084979,0.27016 0,0.23971 -0.1623482,0.38176 -0.1610799,0.14206 -0.4248958,0.14206 -0.2663526,0 -0.42743239,-0.14206 -0.1598115,-0.14332 -0.1598115,-0.38176 0,-0.14967 0.0811741,-0.27016 0.0824425,-0.1205 0.22703379,-0.18265 -0.12302949,-0.0609 -0.19405682,-0.16869 -0.0710272,-0.1078 -0.0710272,-0.24479 0,-0.23338 0.14966475,-0.37036 0.14966487,-0.13698 0.39445547,-0.13698 0.2435224,0 0.3931871,0.13698 0.1509332,0.13698 0.150933,0.37036 z m -0.1915202,0.86121 q 0,-0.15474 -0.098931,-0.2524 -0.097663,-0.0977 -0.2562058,-0.0977 -0.1585431,0 -0.2549374,0.0964 -0.0951259,0.0964 -0.0951259,0.25367 0,0.15727 0.0925892,0.24733 0.093857,0.0901 0.2600108,0.0901 0.164885,0 0.2587425,-0.0901 0.093858,-0.0913 0.093858,-0.24733 z m -0.3526001,-1.17576 q -0.1382497,0 -0.2244971,0.0863 -0.0849792,0.085 -0.0849792,0.23211 0,0.14079 0.0837108,0.2283 0.084979,0.0863 0.2257655,0.0863 0.1407864,0 0.2244972,-0.0863 0.084979,-0.0875 0.084979,-0.2283 0,-0.14079 -0.087516,-0.22958 -0.087516,-0.0888 -0.2219605,-0.0888 z"
         style="font-style:normal;font-variant:normal;font-weight:normal;font-stretch:normal;font-size:medium;line-height:1.25;font-family:roboto;-inkscape-font-specification:roboto;letter-spacing:9.92188px;word-spacing:0px;writing-mode:vertical-lr;text-orientation:upright;fill:#b58863;fill-opacity:1;stroke:none;stroke-width:0.148828"
         id="path1059"
         inkscape:connector-curvature="0" />
      <path
         d="m 1.6154522,218.38658 v 0.19914 h -0.043124 q -0.2739626,0.005 -0.4363109,0.16234 -0.16234814,0.15728 -0.18771509,0.44266 0.14585969,-0.16742 0.39826049,-0.16742 0.2409856,0 0.3843087,0.16995 0.1445914,0.16995 0.1445914,0.43885 0,0.28538 -0.1560066,0.4566 -0.1547381,0.17123 -0.4160172,0.17123 -0.2650843,0 -0.42996916,-0.20294 -0.16488488,-0.2042 -0.16488488,-0.52509 v -0.0901 q 0,-0.50987 0.21688703,-0.77876 0.21815551,-0.27016 0.64812451,-0.2765 z m -0.3082079,0.83204 q -0.1204928,0 -0.2219605,0.0723 -0.10146761,0.0723 -0.14078636,0.18137 v 0.0863 q 0,0.2283 0.10273606,0.36782 0.1027359,0.13952 0.2562057,0.13952 0.1585432,0 0.2485957,-0.11669 0.091321,-0.11669 0.091321,-0.30567 0,-0.19025 -0.092589,-0.30694 -0.091321,-0.11795 -0.2435223,-0.11795 z"
         style="font-style:normal;font-variant:normal;font-weight:normal;font-stretch:normal;font-size:medium;line-height:1.25;font-family:roboto;-inkscape-font-specification:roboto;letter-spacing:9.92188px;word-spacing:0px;writing-mode:vertical-lr;text-orientation:upright;fill:#b58863;fill-opacity:1;stroke:none;stroke-width:0.148828"
         id="path1063"
         inkscape:connector-curvature="0" />
      <path
         d="m 1.8500259,246.06103 h 0.2562058 v 0.19152 H 1.8500259 v 0.4287 H 1.6141137 v -0.4287 H 0.77320059 v -0.13825 l 0.82696131,-1.27976 h 0.249864 z m -0.8104728,0 h 0.5745606 v -0.9056 l -0.027904,0.0508 z"
         style="font-style:normal;font-variant:normal;font-weight:normal;font-stretch:normal;font-size:medium;line-height:1.25;font-family:roboto;-inkscape-font-specification:roboto;letter-spacing:9.92188px;word-spacing:0px;writing-mode:vertical-lr;text-orientation:upright;fill:#b58863;fill-opacity:1;stroke:none;stroke-width:0.148828"
         id="path1067"
         inkscape:connector-curvature="0" />
      <path
         d="M 1.9846819,273.17478 H 0.77468031 v -0.16869 l 0.63924609,-0.71028 q 0.1420547,-0.16107 0.1953252,-0.26127 0.054539,-0.10147 0.054539,-0.20928 0,-0.1446 -0.087516,-0.23718 -0.087516,-0.0926 -0.2333756,-0.0926 -0.1750316,0 -0.2726942,0.1002 -0.0963942,0.0989 -0.0963942,0.27649 H 0.73916661 q 0,-0.25493 0.16361655,-0.4122 0.16488494,-0.15728 0.44011584,-0.15728 0.2574742,0 0.407139,0.13572 0.1496647,0.13444 0.1496647,0.35894 0,0.27269 -0.3475267,0.64939 l -0.4946546,0.53651 h 0.9271605 z"
         style="font-style:normal;font-variant:normal;font-weight:normal;font-stretch:normal;font-size:medium;line-height:1.25;font-family:roboto;-inkscape-font-specification:roboto;letter-spacing:9.92188px;word-spacing:0px;writing-mode:vertical-lr;text-orientation:upright;fill:#b58863;fill-opacity:1;stroke:none;stroke-width:0.148828"
         id="path1071"
         inkscape:connector-curvature="0" />
    </g>
    <g
       id="g916">
      <path
         d="m 12.395899,296.55884 q -0.01952,-0.0391 -0.03172,-0.13907 -0.157373,0.16347 -0.375741,0.16347 -0.195191,0 -0.320844,-0.10979 -0.124434,-0.11102 -0.124434,-0.28059 0,-0.20617 0.156152,-0.31962 0.157372,-0.11468 0.441617,-0.11468 h 0.21959 v -0.10369 q 0,-0.11834 -0.07076,-0.18787 -0.07076,-0.0707 -0.208609,-0.0707 -0.120774,0 -0.20251,0.061 -0.08174,0.061 -0.08174,0.14761 h -0.226908 q 0,-0.0988 0.06954,-0.19031 0.07075,-0.0927 0.19031,-0.14639 0.120775,-0.0537 0.264727,-0.0537 0.228128,0 0.357442,0.11468 0.129313,0.11345 0.134193,0.31352 v 0.60752 q 0,0.18178 0.04636,0.28913 v 0.0195 z m -0.374521,-0.17201 q 0.106135,0 0.20129,-0.0549 0.09516,-0.0549 0.137853,-0.14273 v -0.27083 H 12.18363 q -0.41478,0 -0.41478,0.24276 0,0.10614 0.07076,0.16592 0.07076,0.0598 0.181771,0.0598 z"
         style="font-style:normal;font-variant:normal;font-weight:normal;font-stretch:normal;font-size:medium;line-height:1.25;font-family:roboto;-inkscape-font-specification:roboto;letter-spacing:10.9934px;word-spacing:0px;fill:#f0d9b5;fill-opacity:1;stroke:none;stroke-width:0.148828"
         id="path983"
         inkscape:connector-curvature="0" />
      <path
         d="m 38.557307,296.32099 q 0.120774,0 0.21105,-0.0732 0.09027,-0.0732 0.100035,-0.183 h 0.213489 q -0.0061,0.11346 -0.07808,0.21594 -0.07198,0.10246 -0.19275,0.16346 -0.119554,0.061 -0.253748,0.061 -0.269606,0 -0.429417,-0.17934 -0.158592,-0.18054 -0.158592,-0.49285 v -0.0378 q 0,-0.19275 0.07075,-0.34281 0.07075,-0.15005 0.202509,-0.233 0.132973,-0.083 0.313524,-0.083 0.222029,0 0.368421,0.13298 0.147613,0.13297 0.157372,0.34524 h -0.21348 q -0.0098,-0.12809 -0.09759,-0.20983 -0.08662,-0.083 -0.21471,-0.083 -0.172011,0 -0.267166,0.12444 -0.09393,0.12321 -0.09393,0.35744 v 0.0427 q 0,0.22813 0.09393,0.35135 0.09394,0.12322 0.268386,0.12322 z"
         style="font-style:normal;font-variant:normal;font-weight:normal;font-stretch:normal;font-size:medium;line-height:1.25;font-family:roboto;-inkscape-font-specification:roboto;letter-spacing:10.9934px;word-spacing:0px;fill:#f0d9b5;fill-opacity:1;stroke:none;stroke-width:0.148828"
         id="path987"
         inkscape:connector-curvature="0" />
      <path
         d="m 65.022556,296.5052 q -0.268386,0 -0.436738,-0.17566 -0.168352,-0.1769 -0.168352,-0.47212 v -0.0415 q 0,-0.19641 0.07442,-0.35013 0.07564,-0.15492 0.209829,-0.24154 0.135414,-0.0878 0.292785,-0.0878 0.257408,0 0.40014,0.16956 0.142734,0.16958 0.142734,0.48555 v 0.0939 h -0.894216 q 0.0049,0.19519 0.113454,0.31596 0.109795,0.11955 0.278147,0.11955 0.119554,0 0.20251,-0.0488 0.08295,-0.0487 0.145172,-0.12931 l 0.137853,0.10736 q -0.165911,0.25496 -0.497735,0.25496 z m -0.02806,-1.18333 q -0.136632,0 -0.229348,0.10003 -0.09272,0.0988 -0.114674,0.27815 h 0.661206 v -0.0171 q -0.0098,-0.17201 -0.09271,-0.26594 -0.08296,-0.0952 -0.224469,-0.0952 z"
         style="font-style:normal;font-variant:normal;font-weight:normal;font-stretch:normal;font-size:medium;line-height:1.25;font-family:roboto;-inkscape-font-specification:roboto;letter-spacing:10.9934px;word-spacing:0px;fill:#f0d9b5;fill-opacity:1;stroke:none;stroke-width:0.148828"
         id="path991"
         inkscape:connector-curvature="0" />
      <path
         d="m 90.882571,295.12193 q 0,-0.30865 0.142733,-0.49042 0.142733,-0.18299 0.378181,-0.18299 0.241548,0 0.376961,0.17079 l 0.01098,-0.1464 h 0.20617 v 1.28826 q 0,0.25619 -0.152493,0.4038 -0.151272,0.14761 -0.40746,0.14761 -0.142732,0 -0.279365,-0.061 -0.136633,-0.061 -0.208609,-0.16713 l 0.117114,-0.13541 q 0.145172,0.17933 0.355002,0.17933 0.164691,0 0.256187,-0.0927 0.09271,-0.0927 0.09271,-0.26106 v -0.11345 q -0.135413,0.15615 -0.369641,0.15615 -0.231789,0 -0.375741,-0.18665 -0.142733,-0.18665 -0.142734,-0.50871 z m 0.226909,0.0256 q 0,0.22326 0.09149,0.35135 0.0915,0.12687 0.256187,0.12687 0.213489,0 0.313524,-0.19397 v -0.60265 q -0.103694,-0.18909 -0.311083,-0.18909 -0.164693,0 -0.257408,0.12809 -0.09271,0.12809 -0.09271,0.3794 z"
         style="font-style:normal;font-variant:normal;font-weight:normal;font-stretch:normal;font-size:medium;line-height:1.25;font-family:roboto;-inkscape-font-specification:roboto;letter-spacing:10.9934px;word-spacing:0px;fill:#f0d9b5;fill-opacity:1;stroke:none;stroke-width:0.148828"
         id="path995"
         inkscape:connector-curvature="0" />
      <path
         d="m 1.988205,205.27895 -0.7648123,1.7148 H 0.97733376 L 1.7396094,205.33983 H 0.74015309 v -0.19279 H 1.988205 Z"
         style="font-style:normal;font-variant:normal;font-weight:normal;font-stretch:normal;font-size:medium;line-height:1.25;font-family:roboto;-inkscape-font-specification:roboto;letter-spacing:9.92188px;word-spacing:0px;writing-mode:vertical-lr;text-orientation:upright;fill:#f0d9b5;fill-opacity:1;stroke:none;stroke-width:0.148828"
         id="path1061"
         inkscape:connector-curvature="0" />
      <path
         d="m 0.77207319,232.53605 0.0938576,-0.92082 H 1.8121165 v 0.21689 H 1.0650611 l -0.055808,0.50353 q 0.135713,-0.0799 0.3082079,-0.0799 0.2524008,0 0.4007972,0.16742 0.1483964,0.16615 0.1483964,0.45026 0,0.28538 -0.1547381,0.45027 -0.1534698,0.16361 -0.4299692,0.16361 -0.2447906,0 -0.39952876,-0.13571 -0.15473813,-0.13572 -0.17630003,-0.37543 h 0.22196055 q 0.0215617,0.15854 0.11288284,0.23971 0.091321,0.0799 0.2409855,0.0799 0.1636166,0 0.2562059,-0.11161 0.093858,-0.11162 0.093858,-0.30821 0,-0.18518 -0.1014676,-0.29679 -0.1001993,-0.11289 -0.2676209,-0.11289 -0.1534698,0 -0.2409857,0.0672 l -0.0621487,0.0507 z"
         style="font-style:normal;font-variant:normal;font-weight:normal;font-stretch:normal;font-size:medium;line-height:1.25;font-family:roboto;-inkscape-font-specification:roboto;letter-spacing:9.92188px;word-spacing:0px;writing-mode:vertical-lr;text-orientation:upright;fill:#f0d9b5;fill-opacity:1;stroke:none;stroke-width:0.148828"
         id="path1065"
         inkscape:connector-curvature="0" />
      <path
         d="m 1.0854954,258.91797 h 0.1763 q 0.1661533,-0.003 0.2612792,-0.0875 0.095126,-0.085 0.095126,-0.22957 0,-0.32469 -0.3234281,-0.32469 -0.1522015,0 -0.2435223,0.0875 -0.0900526,0.0862 -0.0900526,0.22957 H 0.72655366 q 0,-0.21943 0.1598115,-0.36401 0.16107994,-0.14587 0.40840724,-0.14587 0.2612792,0 0.4096756,0.13826 0.1483964,0.13825 0.1483964,0.3843 0,0.12049 -0.078637,0.23337 -0.077369,0.11289 -0.2118137,0.1687 0.1522015,0.0482 0.2346439,0.15981 0.083711,0.11162 0.083711,0.27269 0,0.2486 -0.1623482,0.39446 -0.1623482,0.14586 -0.4223591,0.14586 -0.2600108,0 -0.42362734,-0.14078 -0.16234822,-0.14079 -0.16234822,-0.37164 h 0.23591227 q 0,0.14587 0.095126,0.23338 0.095126,0.0875 0.2549373,0.0875 0.1699583,0 0.2600109,-0.0888 0.090053,-0.0888 0.090053,-0.25493 0,-0.16108 -0.098931,-0.24733 -0.098931,-0.0863 -0.2853777,-0.0888 h -0.1763 z"
         style="font-style:normal;font-variant:normal;font-weight:normal;font-stretch:normal;font-size:medium;line-height:1.25;font-family:roboto;-inkscape-font-specification:roboto;letter-spacing:9.92188px;word-spacing:0px;writing-mode:vertical-lr;text-orientation:upright;fill:#f0d9b5;fill-opacity:1;stroke:none;stroke-width:0.148828"
         id="path1069"
         inkscape:connector-curvature="0" />
      <path
         d="M 1.239529,286.38103 H 1.0036167 v -1.56387 l -0.47309281,0.17376 v -0.21308 l 0.67222311,-0.2524 h 0.036782 z"
         style="font-style:normal;font-variant:normal;font-weight:normal;font-stretch:normal;font-size:medium;line-height:1.25;font-family:roboto;-inkscape-font-specification:roboto;letter-spacing:9.92188px;word-spacing:0px;writing-mode:vertical-lr;text-orientation:upright;fill:#f0d9b5;fill-opacity:1;stroke:none;stroke-width:0.148828"
         id="path1073"
         inkscape:connector-curvature="0" />
    </g>
  </g>
</svg>
