<?xml version="1.0" encoding="UTF-8" standalone="no"?>
<svg
   xmlns:dc="http://purl.org/dc/elements/1.1/"
   xmlns:cc="http://creativecommons.org/ns#"
   xmlns:rdf="http://www.w3.org/1999/02/22-rdf-syntax-ns#"
   xmlns:svg="http://www.w3.org/2000/svg"
   xmlns="http://www.w3.org/2000/svg"
   xmlns:sodipodi="http://sodipodi.sourceforge.net/DTD/sodipodi-0.dtd"
   xmlns:inkscape="http://www.inkscape.org/namespaces/inkscape"
   width="1080"
   height="1080"
   viewBox="0 0 285.75002 285.75001"
   version="1.1"
   id="svg8"
   sodipodi:docname="ChessUp - no openings - 02.svg"
   inkscape:version="1.0beta1 (fe3e306, 2019-09-17)">
  <defs
     id="defs2" />
  <sodipodi:namedview
     id="base"
     pagecolor="#262626"
     bordercolor="#666666"
     borderopacity="1.0"
     inkscape:pageopacity="0"
     inkscape:pageshadow="2"
     inkscape:zoom="0.7"
     inkscape:cx="654.09607"
     inkscape:cy="500.07183"
     inkscape:document-units="mm"
     inkscape:current-layer="svg8"
     inkscape:document-rotation="0"
     showgrid="false"
     inkscape:showpageshadow="false"
     units="px"
     inkscape:snap-page="false"
     inkscape:window-width="1920"
     inkscape:window-height="1017"
     inkscape:window-x="1358"
     inkscape:window-y="-8"
     inkscape:window-maximized="1" />
  <metadata
     id="metadata5">
    <rdf:RDF>
      <cc:Work
         rdf:about="">
        <dc:format>image/svg+xml</dc:format>
        <dc:type
           rdf:resource="http://purl.org/dc/dcmitype/StillImage" />
        <dc:title></dc:title>
      </cc:Work>
    </rdf:RDF>
  </metadata>
  <g
     inkscape:label="Layer 1"
     id="layer1"
     inkscape:groupmode="layer" />
  <path
     style="opacity:1;fill:#cdcdcd;stroke:#cdcdcd;stroke-width:2;stroke-opacity:1;stop-opacity:1"
     d="m 126.25192,223.18625 c -3.25794,-0.33482 -5.40976,-1.06417 -6.07966,-2.06068 -0.59822,-0.88987 -1.1398,-3.58032 -1.21835,-6.05246 -0.0761,-2.39436 0.035,-3.13994 0.65234,-4.37895 l 0.37273,-0.74808 -0.74298,-0.79124 c -1.17963,-1.25626 -1.43748,-1.91981 -1.43672,-3.69722 6e-4,-1.46013 0.0159,-1.52679 0.63611,-2.76789 0.89859,-1.79828 1.63352,-2.71101 4.57771,-5.68512 1.42571,-1.4402 2.86302,-3.02251 3.19403,-3.51624 2.6143,-3.89952 2.60255,-7.48658 -0.0395,-12.07448 -0.36506,-0.63391 -0.66374,-1.26716 -0.66374,-1.40723 0,-0.42555 0.72186,-1.23376 1.84838,-2.0695 1.37968,-1.02352 1.53081,-1.20319 1.88983,-2.24671 0.81977,-2.38271 1.19869,-6.14596 1.30461,-12.95682 0.13753,-8.84346 -0.4777,-17.15556 -1.69914,-22.95635 -0.4706,-2.23494 -0.69939,-2.82018 -1.05902,-2.70897 -0.78092,0.24149 -11.12981,2.04583 -11.90192,2.07511 -0.87551,0.0332 -0.92223,0.0161 -1.24423,-0.45525 -0.86984,-1.27329 -1.23061,-3.67854 -0.7148,-4.76552 0.36002,-0.75871 1.42841,-1.62034 2.48774,-2.00631 0.51397,-0.18728 0.98281,-0.38171 1.04185,-0.43208 0.059,-0.0504 -0.0275,-0.5248 -0.19227,-1.05427 -0.55765,-1.79174 -0.10541,-2.46048 2.14674,-3.17442 l 1.47269,-0.46685 -0.0977,-0.57858 c -0.0538,-0.31822 -0.25894,-1.23364 -0.45595,-2.03426 -0.36693,-1.49118 -0.47259,-1.65491 -1.39346,-2.15939 -0.53719,-0.29429 -0.62235,-0.8775 -0.23697,-1.62276 0.20557,-0.39752 0.20463,-0.48712 -0.009,-0.90106 -0.13074,-0.25281 -1.96436,-2.82807 -4.07471,-5.7228 -6.9015,-9.46662 -7.16412,-9.854 -7.58638,-11.1907 -0.43576,-1.37943 -0.47645,-2.43394 -0.13827,-3.583277 0.50382,-1.712306 1.7654,-3.251326 3.78815,-4.621217 0.88004,-0.595995 4.10978,-2.216867 4.91535,-2.466805 0.20225,-0.06275 0.48895,-0.399894 0.7085,-0.83314 0.55574,-1.096712 1.77435,-1.87182 4.37496,-2.782738 0.67867,-0.237718 1.23375,-0.465877 1.23352,-0.507021 -3e-4,-0.04115 -0.505,-0.639302 -1.12172,-1.329237 -0.61673,-0.689936 -1.12132,-1.32682 -1.12132,-1.415298 0,-0.08848 0.17796,-0.787949 0.39546,-1.554379 0.2175,-0.766431 0.36899,-1.411416 0.33664,-1.4333 -0.0324,-0.02188 -0.83309,0.0028 -1.77941,0.05486 -1.29225,0.07109 -1.8011,0.04591 -2.04404,-0.101129 -0.36716,-0.222223 -0.44563,-0.524527 -1.40351,-5.40711 -0.58424,-2.978082 -0.60884,-3.204429 -0.38527,-3.545644 0.13135,-0.200467 0.94045,-0.774587 1.79799,-1.275821 0.85755,-0.501236 1.63756,-1.005792 1.73337,-1.121236 0.13803,-0.166317 -0.0456,-0.626297 -0.88429,-2.215434 -0.63475,-1.202682 -1.05848,-2.186302 -1.05848,-2.457087 0,-0.529051 -0.0798,-0.420798 3.26719,-4.433958 1.76661,-2.118248 2.75548,-3.183557 3.08161,-3.319824 0.38575,-0.161175 0.87555,-0.170333 2.48929,-0.04654 2.85539,0.219042 8.83283,1.149983 9.13951,1.423412 0.54344,0.484514 0.61843,0.99306 0.44068,2.988753 -0.0928,1.042359 -0.1394,1.924596 -0.10347,1.960523 0.0359,0.03593 1.01303,0.10284 2.17134,0.148694 1.36138,0.05389 2.15869,0.146839 2.25499,0.26287 0.20428,0.24614 1.94036,8.891377 1.83871,9.156282 -0.0449,0.116921 -1.01545,0.680412 -2.15686,1.252201 -1.1414,0.571791 -2.07527,1.116161 -2.07527,1.209713 0,0.09355 0.53861,0.731129 1.19692,1.41684 0.65831,0.685709 1.19623,1.366145 1.19537,1.51208 -8.9e-4,0.145935 -0.24118,1.039598 -0.53406,1.985917 -0.29288,0.946318 -0.56324,1.821569 -0.60079,1.945002 -0.0376,0.123433 0.0513,0.460068 0.19743,0.748078 l 0.26571,0.523654 2.16942,0.01077 c 2.45325,0.01218 3.15969,0.169106 4.00335,0.889282 l 0.55993,0.477971 2.39385,0.08818 c 5.40719,0.199173 8.27151,1.561321 9.48146,4.508971 0.30441,0.741584 0.37353,1.166549 0.37876,2.328492 0.005,1.196322 -0.10732,1.895088 -0.71179,4.41366 -0.39497,1.645773 -1.35256,5.63763 -2.12799,8.8708 -0.77543,3.23317 -1.40986,6.11592 -1.40986,6.40611 0,0.40918 0.11755,0.63849 0.52365,1.02149 0.65336,0.6162 0.67437,1.08105 0.0748,1.65546 -0.35744,0.34246 -0.44774,0.55381 -0.44344,1.0379 0.007,0.82513 0.51324,3.65503 0.68392,3.82571 0.0835,0.0835 0.66512,0.082 1.48203,-0.004 2.48586,-0.26113 3.02909,0.0944 3.20447,2.09734 l 0.0851,0.9725 1.57097,0.0848 c 1.92118,0.1037 2.64656,0.41843 3.28512,1.42532 0.71217,1.12298 1.04851,4.3821 0.48332,4.68337 -0.2907,0.15495 -4.25755,1.06422 -9.21372,2.11193 -1.93333,0.40869 -3.48397,0.81042 -3.55977,0.92224 -0.40046,0.59073 0.77118,5.91001 2.53169,11.49409 3.70486,11.75118 9.64006,24.20699 12.15416,25.50707 0.228,0.11791 0.91142,0.32663 1.51871,0.46381 1.28552,0.2904 2.33212,0.74499 2.51144,1.09083 0.0693,0.13373 0.0721,0.61342 0.006,1.06601 -0.21489,1.4752 -0.1622,4.739 0.0927,5.73861 0.72926,2.86016 2.86074,5.3017 6.01373,6.88851 0.43292,0.21789 1.84679,0.80398 3.14192,1.30244 5.24386,2.01819 7.5251,3.90169 8.12746,6.71045 0.13598,0.63399 0.11081,0.93559 -0.16574,1.98562 -0.17933,0.68093 -0.35996,1.38558 -0.40139,1.56586 -0.0577,0.25101 0.11721,0.51576 0.74679,1.13039 1.52791,1.49172 2.78613,4.76976 3.18077,8.28679 0.13994,1.24717 -0.0675,1.77456 -1.09246,2.77706 -1.86858,1.82769 -5.81776,3.86022 -11.78103,6.06338 -10.05466,3.71475 -26.13337,7.13426 -39.27409,8.35259 -2.90701,0.26952 -10.59729,0.40354 -12.41809,0.2164 z M 94.051902,191.39582 c -2.784739,-0.70761 -4.934138,-2.89447 -5.517248,-5.61341 -0.231027,-1.07725 -0.09772,-3.0278 0.278245,-4.07121 1.165011,-3.23327 4.602888,-5.28713 7.974296,-4.76404 3.693555,0.57309 6.274305,3.56134 6.274305,7.26505 0,4.01376 -2.95093,7.12922 -6.950621,7.33815 -0.762151,0.0398 -1.517135,-0.0169 -2.058977,-0.15454 z m -16.275427,-16.9033 c -4.227655,-0.79827 -8.351015,-5.19756 -10.522356,-11.22649 -0.935422,-2.59729 -1.421094,-4.87029 -2.269754,-10.62271 -0.875294,-5.93296 -1.161247,-7.36125 -1.976972,-9.87463 -0.886706,-2.73209 -2.29486,-5.17059 -3.89746,-6.74922 -2.020449,-1.99024 -5.063341,-2.84797 -7.481786,-2.10896 -1.969177,0.60173 -4.139514,2.30636 -5.956079,4.67805 -0.472603,0.61702 -0.931131,1.09791 -1.018952,1.06864 -0.125423,-0.0418 -3.519763,-11.82781 -3.529913,-12.25675 -0.0044,-0.18495 2.710422,-2.278 3.919967,-3.0222 5.500469,-3.3843 11.789743,-3.77351 17.168485,-1.06249 2.749914,1.38603 4.689789,3.05239 6.793967,5.83605 3.994133,5.2839 6.062885,11.51683 8.020463,24.16478 0.787557,5.08843 1.24755,7.63246 1.807222,9.99498 0.979486,4.13467 2.457338,7.41897 4.24973,9.44441 0.602549,0.6809 0.929985,1.1651 0.845206,1.24987 -0.498363,0.49837 -4.438887,0.81011 -6.151768,0.48667 z m 137.254855,-0.28376 c -1.5369,-0.38824 -2.83843,-1.45036 -3.60065,-2.9383 -0.37517,-0.73237 -0.42154,-0.97958 -0.42154,-2.24738 0,-1.30563 0.0407,-1.50715 0.4877,-2.41515 0.5676,-1.15295 1.37869,-1.94421 2.56146,-2.49879 0.72355,-0.33927 1.03911,-0.39427 2.26219,-0.39427 1.25158,0 1.52256,0.0497 2.26873,0.41613 0.46605,0.22886 1.13295,0.70015 1.482,1.04731 2.33471,2.32199 1.9985,6.34142 -0.68484,8.18762 -1.2701,0.87384 -2.94735,1.19843 -4.35505,0.84283 z m 6.07421,-16.06707 c -0.85617,-1.81723 -1.13455,-3.32697 -0.90164,-4.88997 0.21582,-1.44833 1.21211,-3.43884 2.44363,-4.88217 2.31937,-2.71828 4.65762,-4.14437 11.02837,-6.72615 4.0215,-1.62974 6.48158,-2.87272 7.86067,-3.97168 2.64749,-2.10972 3.91415,-4.6181 3.49018,-6.91161 -0.37161,-2.0102 -1.5874,-3.3935 -4.15512,-4.72762 -0.91297,-0.47436 -1.65994,-0.90872 -1.65993,-0.96526 2e-5,-0.13119 7.84175,-4.51645 8.07631,-4.51645 0.52526,0 3.66035,2.96105 4.59387,4.33885 2.24662,3.31578 2.79937,7.34216 1.52927,11.13943 -0.60362,1.80472 -1.25734,2.93603 -2.65984,4.60314 -3.19975,3.80345 -7.06896,6.18077 -16.35688,10.05 -7.61059,3.17046 -10.36509,4.83169 -12.09087,7.29198 -0.33881,0.48301 -0.67163,0.87819 -0.7396,0.87819 -0.068,0 -0.27426,-0.31981 -0.45842,-0.71068 z m -24.08546,-44.86137 c -2.28297,-0.98887 -2.72954,-4.13548 -0.81132,-5.71663 1.57743,-1.30026 3.9705,-0.86427 5.00825,0.91245 0.4111,0.70382 0.45033,0.88202 0.40815,1.85395 -0.0395,0.91049 -0.11547,1.17318 -0.49563,1.71409 -0.88499,1.25918 -2.75653,1.82215 -4.10945,1.23614 z m 1.077,-11.04258 c -0.88251,-0.9574 -1.25938,-1.79163 -1.34437,-2.975917 -0.11995,-1.67083 0.58852,-3.758657 1.88907,-5.567036 0.29591,-0.411443 1.7611,-1.996089 3.25598,-3.521436 2.91104,-2.970376 3.78129,-4.126477 4.25109,-5.647487 0.51105,-1.654612 0.33255,-2.751928 -0.62457,-3.839262 -0.68512,-0.778346 -1.40409,-1.088247 -3.02245,-1.302802 -0.66974,-0.08879 -1.24296,-0.184531 -1.27381,-0.212756 -0.0644,-0.05886 3.15707,-4.120289 3.48205,-4.389998 0.16911,-0.140347 0.46282,-0.09483 1.38662,0.21489 1.63443,0.547977 2.66664,1.170733 3.73922,2.255966 3.18321,3.22076 2.88149,8.085812 -0.8063,13.001727 -0.55559,0.740597 -2.46706,2.833442 -4.24771,4.650765 -4.05048,4.133869 -5.07041,5.480636 -5.52858,7.300136 -0.0958,0.38039 -0.25857,0.69161 -0.36176,0.69161 -0.10317,0 -0.46069,-0.29628 -0.79448,-0.6584 z"
     id="path27"
     inkscape:connector-curvature="0" />
  <path
     style="opacity:1;fill:#353535;stroke:none;stroke-width:1;stroke-opacity:1;stop-opacity:1"
     d="m 126.02749,222.88268 c -2.78276,-0.31331 -4.72788,-0.90996 -5.4185,-1.66208 -0.74903,-0.81571 -1.40379,-3.92691 -1.40347,-6.66878 3e-4,-1.98915 0.1332,-2.70097 0.72567,-3.88448 l 0.38791,-0.77492 -0.82212,-0.88799 c -1.23031,-1.32888 -1.40095,-1.76447 -1.38948,-3.54681 0.008,-1.27533 0.0662,-1.6197 0.39289,-2.33311 0.8035,-1.75466 1.80297,-3.02753 4.39445,-5.59652 3.43899,-3.40912 4.59907,-5.05071 5.24282,-7.41893 0.38749,-1.42547 0.36134,-3.66537 -0.0587,-5.0231 -0.40308,-1.30308 -1.04408,-2.75276 -1.749,-3.95551 -0.28982,-0.49451 -0.52694,-1.02037 -0.52694,-1.1686 0,-0.30623 1.23204,-1.51661 2.25888,-2.21916 0.81238,-0.55582 1.10692,-0.97031 1.49997,-2.11079 1.35943,-3.94458 1.73615,-16.6381 0.80126,-26.99819 -0.5027,-5.57071 -1.48026,-11.11601 -2.06829,-11.73255 -0.136,-0.1426 -0.85012,-0.0531 -3.28921,0.41239 -4.32649,0.82563 -9.07086,1.63994 -9.5547,1.63994 -0.34957,0 -0.46574,-0.12787 -0.84951,-0.93509 -0.81648,-1.71737 -0.8894,-3.17541 -0.21673,-4.33332 0.33249,-0.57233 1.57927,-1.36568 2.70322,-1.72009 0.43202,-0.13623 0.78549,-0.32189 0.78549,-0.41257 0,-0.0907 -0.13466,-0.548 -0.29924,-1.01625 -0.35639,-1.014 -0.37031,-1.33471 -0.0821,-1.89201 0.23881,-0.46179 1.06886,-0.87696 2.60992,-1.30542 0.51972,-0.14449 0.97843,-0.34996 1.01935,-0.45659 0.0842,-0.21934 -0.28414,-2.01876 -0.71983,-3.51685 -0.26392,-0.90747 -0.34992,-1.03309 -0.9233,-1.34879 -0.74112,-0.40803 -0.86203,-0.81668 -0.46162,-1.56018 0.26056,-0.48385 0.26078,-0.52346 0.005,-0.99026 -0.14628,-0.26744 -2.42283,-3.44864 -5.059,-7.06934 -2.63617,-3.6207 -5.1177,-7.06759 -5.51451,-7.65977 -3.19886,-4.773787 -1.23752,-8.796407 5.82761,-11.952171 1.84925,-0.825999 1.99728,-0.922896 2.20676,-1.444543 0.42185,-1.050467 1.75702,-1.893615 4.56984,-2.885828 0.73348,-0.258732 1.15952,-0.489662 1.15952,-0.628504 0,-0.120719 -0.41214,-0.667437 -0.91586,-1.214928 -1.46456,-1.591811 -1.41596,-1.438558 -0.95937,-3.025638 0.21689,-0.753914 0.37348,-1.479155 0.34796,-1.611643 -0.039,-0.202673 -0.24792,-0.23466 -1.31677,-0.201623 -0.69872,0.0216 -1.55055,0.0772 -1.89298,0.123572 -0.53901,0.07299 -0.65285,0.0371 -0.84804,-0.267327 -0.2869,-0.447463 -1.7946,-7.967561 -1.67375,-8.348314 0.0507,-0.159673 0.844,-0.7224 1.80586,-1.280944 0.94351,-0.547893 1.78325,-1.122798 1.86608,-1.277569 0.12065,-0.225431 -0.0582,-0.68225 -0.89915,-2.296649 -1.07473,-2.063193 -1.17718,-2.411025 -0.87769,-2.979839 0.22108,-0.419878 4.89864,-6.035536 5.46118,-6.556442 0.2344,-0.217049 0.56673,-0.436925 0.73851,-0.488616 0.29061,-0.08745 2.64371,0.211242 5.82191,0.739001 1.98803,0.330122 2.00453,0.336229 2.32174,0.85894 l 0.29265,0.482235 1.5355,0.07481 1.53551,0.07481 -0.001,0.748078 c -7.5e-4,0.411443 -0.0537,1.370853 -0.11759,2.132022 l -0.11626,1.383944 h 0.68185 c 0.56544,0 0.70602,0.05748 0.82338,0.336635 0.0778,0.185149 0.49071,2.120801 0.9175,4.301448 0.42679,2.180647 0.84876,4.058087 0.93771,4.17209 0.12677,0.162464 0.46143,0.187591 1.54795,0.11622 1.13836,-0.07478 1.38622,-0.0532 1.38622,0.120656 0,0.121739 -0.92683,0.686726 -2.18084,1.329425 -2.13027,1.09179 -2.21359,1.120166 -3.59305,1.223588 -0.77671,0.05823 -1.44834,0.164345 -1.4925,0.235806 -0.0442,0.07146 0.47864,0.73126 1.16179,1.466221 l 1.24209,1.336291 1.53356,0.01197 c 0.84346,0.0066 1.53356,0.05415 1.53356,0.105686 0,0.228782 -0.94981,3.28955 -1.06677,3.437681 -0.0717,0.09077 -0.77847,0.203711 -1.57065,0.250974 -0.79219,0.04726 -1.50454,0.150132 -1.58301,0.228599 -0.0905,0.09048 -0.0288,0.365917 0.16869,0.752971 0.35217,0.690312 0.39229,1.019154 0.13482,1.104979 -0.36507,0.12169 0.0248,0.525073 0.68656,0.710356 0.77516,0.217029 0.83093,0.31933 0.35026,0.64248 -0.18515,0.124475 -0.30222,0.262484 -0.26015,0.306688 0.0421,0.0442 1.01831,-0.05189 2.16942,-0.21354 2.67486,-0.375629 2.95562,-0.33729 1.79633,0.24531 -1.49307,0.750349 -1.46399,1.489529 0.1004,2.551617 1.17395,0.797013 8.30075,3.6533 9.86415,3.95336 0.46234,0.08874 0.95926,0.248091 1.10426,0.354122 0.54954,0.40184 0.48878,1.76662 -0.37387,8.397063 -0.23553,1.81035 -0.57298,4.40244 -0.74987,5.7602 -0.42979,3.29866 -0.35895,3.0733 -1.2443,3.95864 -0.90347,0.90347 -1.58578,1.19883 -4.48115,1.93977 -2.06639,0.52881 -2.36609,0.68123 -2.06136,1.04842 0.34909,0.42062 1.15756,0.41302 5.56522,-0.0524 4.86625,-0.51381 6.56219,-0.58094 6.56219,-0.25976 0,0.43932 -0.52856,0.65709 -1.82432,0.75163 -1.86218,0.13585 -5.04284,0.75238 -5.75446,1.11542 -0.87076,0.44423 -0.99004,0.8461 -0.92726,3.1241 l 0.0528,1.91436 -0.56106,0.27415 c -0.57222,0.2796 -0.70903,0.50726 -0.37404,0.62241 0.10286,0.0353 1.02861,0.17077 2.05722,0.30092 2.37354,0.30032 5.55025,1.30656 5.20735,1.64946 -0.0462,0.0462 -0.61401,0.21103 -1.26175,0.36623 -1.79107,0.42914 -3.60803,1.0339 -3.85833,1.2842 -0.52631,0.52631 -0.15101,0.69721 4.10196,1.86787 0.94632,0.26048 2.39385,0.74103 3.21674,1.06788 1.69906,0.67489 1.35134,0.66871 6.32081,0.1122 3.06107,-0.3428 3.82821,-0.36407 3.74143,-0.10374 -0.0741,0.22227 -1.94388,0.68282 -8.11672,1.99922 -3.28592,0.70074 -4.70405,1.06448 -4.86303,1.24732 -0.12343,0.14195 -0.66205,0.4423 -1.19692,0.66744 -1.25857,0.52976 -2.93533,1.57727 -3.55737,2.22237 l -0.49025,0.50843 0.22696,2.00856 c 0.45544,4.03061 1.66904,9.62766 4.71772,21.75782 2.17241,8.6436 2.60224,10.56401 2.82872,12.63816 0.17431,1.59617 0.37144,1.79974 1.74294,1.79974 0.5209,0 0.99214,0.0729 1.0472,0.16199 0.0551,0.0891 -0.10928,0.45357 -0.36521,0.80994 -0.25592,0.35637 -0.46532,0.73036 -0.46532,0.83112 0,0.3762 2.91044,-0.18798 7.45828,-1.4458 2.38957,-0.6609 3.01975,-0.72441 2.26904,-0.22869 -1.50882,0.99632 -2.16102,1.63606 -2.69171,2.64031 -0.30412,0.57549 -1.07258,2.01308 -1.70768,3.19466 -1.80667,3.3612 -2.48839,5.30466 -2.48158,7.07461 0.008,2.15236 0.58556,3.38712 2.52054,5.3913 1.6691,1.72877 1.54661,1.54784 2.01567,2.97758 0.86413,2.63394 1.49008,3.55861 2.86461,4.23166 1.26874,0.62123 2.81398,0.87006 5.38766,0.86756 4.5396,-0.004 10.0271,-1.13458 13.35938,-2.7514 0.68229,-0.33104 1.27278,-0.56965 1.3122,-0.53023 0.14039,0.14039 -1.24146,1.27606 -2.31696,1.90418 -2.15578,1.25904 -5.32172,2.61151 -10.33481,4.41494 -6.38771,2.29796 -7.18155,2.66189 -7.18155,3.29229 0,0.42971 0.87091,1.1966 1.64175,1.44565 0.84015,0.27145 3.06831,1.41242 4.0063,2.05148 1.60962,1.09666 4.97952,4.39876 4.67876,4.58464 -0.26347,0.16284 -3.75397,1.23421 -6.66123,2.04457 -9.76638,2.72232 -20.70602,4.75705 -30.89561,5.74647 -2.8576,0.27748 -11.00581,0.41144 -12.79214,0.21031 z"
     id="path25"
     inkscape:connector-curvature="0"
     sodipodi:nodetypes="ccccccccccccsscsccscccsccccscccscscsscccccccccscccccccccccscsccscccsccsccccccccscsccccccccscccccccscsccccccccccscsccsccccccccccsccsccccccc" />
</svg>
