<?xml version="1.0" encoding="UTF-8" standalone="no"?>
<!-- Created with Inkscape (http://www.inkscape.org/) -->

<svg
   xmlns:dc="http://purl.org/dc/elements/1.1/"
   xmlns:cc="http://creativecommons.org/ns#"
   xmlns:rdf="http://www.w3.org/1999/02/22-rdf-syntax-ns#"
   xmlns:svg="http://www.w3.org/2000/svg"
   xmlns="http://www.w3.org/2000/svg"
   xmlns:sodipodi="http://sodipodi.sourceforge.net/DTD/sodipodi-0.dtd"
   xmlns:inkscape="http://www.inkscape.org/namespaces/inkscape"
   width="400"
   height="400"
   viewBox="0 0 105.83333 105.83334"
   version="1.1"
   id="svg8"
   sodipodi:docname="chessboard.svg"
   inkscape:version="0.92.3 (2405546, 2018-03-11)">
  <defs
     id="defs2" />
  <sodipodi:namedview
     id="base"
     pagecolor="#ffffff"
     bordercolor="#666666"
     borderopacity="1.0"
     inkscape:pageopacity="0.0"
     inkscape:pageshadow="2"
     inkscape:zoom="0.3535534"
     inkscape:cx="-517.79885"
     inkscape:cy="195.60822"
     inkscape:document-units="mm"
     inkscape:current-layer="layer1"
     showgrid="false"
     units="px"
     inkscape:snap-page="true"
     inkscape:snap-bbox="true"
     inkscape:bbox-nodes="true"
     inkscape:window-width="1920"
     inkscape:window-height="1017"
     inkscape:window-x="1358"
     inkscape:window-y="-8"
     inkscape:window-maximized="1"
     inkscape:snap-nodes="false" />
  <metadata
     id="metadata5">
    <rdf:RDF>
      <cc:Work
         rdf:about="">
        <dc:format>image/svg+xml</dc:format>
        <dc:type
           rdf:resource="http://purl.org/dc/dcmitype/StillImage" />
        <dc:title></dc:title>
      </cc:Work>
    </rdf:RDF>
  </metadata>
  <g
     inkscape:label="Layer 1"
     inkscape:groupmode="layer"
     id="layer1"
     transform="translate(0,-191.16665)">
    <rect
       style="opacity:1;vector-effect:none;fill:#6c7b95;fill-opacity:1;fill-rule:nonzero;stroke:none;stroke-width:0.52916664;stroke-linecap:butt;stroke-linejoin:miter;stroke-miterlimit:4;stroke-dasharray:none;stroke-dashoffset:0;stroke-opacity:1;paint-order:normal"
       id="rect815"
       width="105.83333"
       height="105.83333"
       x="0"
       y="191.16666"
       ry="0" />
    <g
       id="g977"
       style="fill:#464159;fill-opacity:1">
      <rect
         y="283.77081"
         x="0"
         height="13.229167"
         width="13.229167"
         id="rect817"
         style="opacity:1;vector-effect:none;fill:#464159;fill-opacity:1;fill-rule:nonzero;stroke:none;stroke-width:0.52916664;stroke-linecap:butt;stroke-linejoin:miter;stroke-miterlimit:4;stroke-dasharray:none;stroke-dashoffset:0;stroke-opacity:1;paint-order:normal" />
      <rect
         y="283.77081"
         x="26.458334"
         height="13.229167"
         width="13.229167"
         id="rect821"
         style="opacity:1;vector-effect:none;fill:#464159;fill-opacity:1;fill-rule:nonzero;stroke:none;stroke-width:0.52916664;stroke-linecap:butt;stroke-linejoin:miter;stroke-miterlimit:4;stroke-dasharray:none;stroke-dashoffset:0;stroke-opacity:1;paint-order:normal" />
      <rect
         style="opacity:1;vector-effect:none;fill:#464159;fill-opacity:1;fill-rule:nonzero;stroke:none;stroke-width:0.52916664;stroke-linecap:butt;stroke-linejoin:miter;stroke-miterlimit:4;stroke-dasharray:none;stroke-dashoffset:0;stroke-opacity:1;paint-order:normal"
         id="rect825"
         width="13.229167"
         height="13.229167"
         x="52.916668"
         y="283.77081" />
      <rect
         style="opacity:1;vector-effect:none;fill:#464159;fill-opacity:1;fill-rule:nonzero;stroke:none;stroke-width:0.52916664;stroke-linecap:butt;stroke-linejoin:miter;stroke-miterlimit:4;stroke-dasharray:none;stroke-dashoffset:0;stroke-opacity:1;paint-order:normal"
         id="rect829"
         width="13.229167"
         height="13.229167"
         x="79.375"
         y="283.77081" />
      <rect
         y="270.54166"
         x="13.229167"
         height="13.229167"
         width="13.229167"
         id="rect835"
         style="opacity:1;vector-effect:none;fill:#464159;fill-opacity:1;fill-rule:nonzero;stroke:none;stroke-width:0.52916664;stroke-linecap:butt;stroke-linejoin:miter;stroke-miterlimit:4;stroke-dasharray:none;stroke-dashoffset:0;stroke-opacity:1;paint-order:normal" />
      <rect
         y="270.54166"
         x="39.6875"
         height="13.229167"
         width="13.229167"
         id="rect839"
         style="opacity:1;vector-effect:none;fill:#464159;fill-opacity:1;fill-rule:nonzero;stroke:none;stroke-width:0.52916664;stroke-linecap:butt;stroke-linejoin:miter;stroke-miterlimit:4;stroke-dasharray:none;stroke-dashoffset:0;stroke-opacity:1;paint-order:normal" />
      <rect
         style="opacity:1;vector-effect:none;fill:#464159;fill-opacity:1;fill-rule:nonzero;stroke:none;stroke-width:0.52916664;stroke-linecap:butt;stroke-linejoin:miter;stroke-miterlimit:4;stroke-dasharray:none;stroke-dashoffset:0;stroke-opacity:1;paint-order:normal"
         id="rect843"
         width="13.229167"
         height="13.229167"
         x="66.145836"
         y="270.54166" />
      <rect
         style="opacity:1;vector-effect:none;fill:#464159;fill-opacity:1;fill-rule:nonzero;stroke:none;stroke-width:0.52916664;stroke-linecap:butt;stroke-linejoin:miter;stroke-miterlimit:4;stroke-dasharray:none;stroke-dashoffset:0;stroke-opacity:1;paint-order:normal"
         id="rect847"
         width="13.229167"
         height="13.229167"
         x="92.604172"
         y="270.54166" />
      <rect
         style="opacity:1;vector-effect:none;fill:#464159;fill-opacity:1;fill-rule:nonzero;stroke:none;stroke-width:0.52916664;stroke-linecap:butt;stroke-linejoin:miter;stroke-miterlimit:4;stroke-dasharray:none;stroke-dashoffset:0;stroke-opacity:1;paint-order:normal"
         id="rect859"
         width="13.229167"
         height="13.229167"
         x="0"
         y="257.3125" />
      <rect
         style="opacity:1;vector-effect:none;fill:#464159;fill-opacity:1;fill-rule:nonzero;stroke:none;stroke-width:0.52916664;stroke-linecap:butt;stroke-linejoin:miter;stroke-miterlimit:4;stroke-dasharray:none;stroke-dashoffset:0;stroke-opacity:1;paint-order:normal"
         id="rect861"
         width="13.229167"
         height="13.229167"
         x="26.458334"
         y="257.3125" />
      <rect
         y="257.3125"
         x="52.916668"
         height="13.229167"
         width="13.229167"
         id="rect863"
         style="opacity:1;vector-effect:none;fill:#464159;fill-opacity:1;fill-rule:nonzero;stroke:none;stroke-width:0.52916664;stroke-linecap:butt;stroke-linejoin:miter;stroke-miterlimit:4;stroke-dasharray:none;stroke-dashoffset:0;stroke-opacity:1;paint-order:normal" />
      <rect
         y="257.3125"
         x="79.375"
         height="13.229167"
         width="13.229167"
         id="rect865"
         style="opacity:1;vector-effect:none;fill:#464159;fill-opacity:1;fill-rule:nonzero;stroke:none;stroke-width:0.52916664;stroke-linecap:butt;stroke-linejoin:miter;stroke-miterlimit:4;stroke-dasharray:none;stroke-dashoffset:0;stroke-opacity:1;paint-order:normal" />
      <rect
         style="opacity:1;vector-effect:none;fill:#464159;fill-opacity:1;fill-rule:nonzero;stroke:none;stroke-width:0.52916664;stroke-linecap:butt;stroke-linejoin:miter;stroke-miterlimit:4;stroke-dasharray:none;stroke-dashoffset:0;stroke-opacity:1;paint-order:normal"
         id="rect867"
         width="13.229167"
         height="13.229167"
         x="13.229167"
         y="244.08334" />
      <rect
         style="opacity:1;vector-effect:none;fill:#464159;fill-opacity:1;fill-rule:nonzero;stroke:none;stroke-width:0.52916664;stroke-linecap:butt;stroke-linejoin:miter;stroke-miterlimit:4;stroke-dasharray:none;stroke-dashoffset:0;stroke-opacity:1;paint-order:normal"
         id="rect869"
         width="13.229167"
         height="13.229167"
         x="39.6875"
         y="244.08334" />
      <rect
         y="244.08334"
         x="66.145836"
         height="13.229167"
         width="13.229167"
         id="rect871"
         style="opacity:1;vector-effect:none;fill:#464159;fill-opacity:1;fill-rule:nonzero;stroke:none;stroke-width:0.52916664;stroke-linecap:butt;stroke-linejoin:miter;stroke-miterlimit:4;stroke-dasharray:none;stroke-dashoffset:0;stroke-opacity:1;paint-order:normal" />
      <rect
         y="244.08334"
         x="92.604172"
         height="13.229167"
         width="13.229167"
         id="rect873"
         style="opacity:1;vector-effect:none;fill:#464159;fill-opacity:1;fill-rule:nonzero;stroke:none;stroke-width:0.52916664;stroke-linecap:butt;stroke-linejoin:miter;stroke-miterlimit:4;stroke-dasharray:none;stroke-dashoffset:0;stroke-opacity:1;paint-order:normal" />
      <rect
         y="230.85419"
         x="0"
         height="13.229167"
         width="13.229167"
         id="rect877"
         style="opacity:1;vector-effect:none;fill:#464159;fill-opacity:1;fill-rule:nonzero;stroke:none;stroke-width:0.52916664;stroke-linecap:butt;stroke-linejoin:miter;stroke-miterlimit:4;stroke-dasharray:none;stroke-dashoffset:0;stroke-opacity:1;paint-order:normal" />
      <rect
         y="230.85419"
         x="26.458334"
         height="13.229167"
         width="13.229167"
         id="rect879"
         style="opacity:1;vector-effect:none;fill:#464159;fill-opacity:1;fill-rule:nonzero;stroke:none;stroke-width:0.52916664;stroke-linecap:butt;stroke-linejoin:miter;stroke-miterlimit:4;stroke-dasharray:none;stroke-dashoffset:0;stroke-opacity:1;paint-order:normal" />
      <rect
         style="opacity:1;vector-effect:none;fill:#464159;fill-opacity:1;fill-rule:nonzero;stroke:none;stroke-width:0.52916664;stroke-linecap:butt;stroke-linejoin:miter;stroke-miterlimit:4;stroke-dasharray:none;stroke-dashoffset:0;stroke-opacity:1;paint-order:normal"
         id="rect881"
         width="13.229167"
         height="13.229167"
         x="52.916668"
         y="230.85419" />
      <rect
         style="opacity:1;vector-effect:none;fill:#464159;fill-opacity:1;fill-rule:nonzero;stroke:none;stroke-width:0.52916664;stroke-linecap:butt;stroke-linejoin:miter;stroke-miterlimit:4;stroke-dasharray:none;stroke-dashoffset:0;stroke-opacity:1;paint-order:normal"
         id="rect883"
         width="13.229167"
         height="13.229167"
         x="79.375"
         y="230.85419" />
      <rect
         y="217.62503"
         x="13.229167"
         height="13.229167"
         width="13.229167"
         id="rect885"
         style="opacity:1;vector-effect:none;fill:#464159;fill-opacity:1;fill-rule:nonzero;stroke:none;stroke-width:0.52916664;stroke-linecap:butt;stroke-linejoin:miter;stroke-miterlimit:4;stroke-dasharray:none;stroke-dashoffset:0;stroke-opacity:1;paint-order:normal" />
      <rect
         y="217.62503"
         x="39.6875"
         height="13.229167"
         width="13.229167"
         id="rect887"
         style="opacity:1;vector-effect:none;fill:#464159;fill-opacity:1;fill-rule:nonzero;stroke:none;stroke-width:0.52916664;stroke-linecap:butt;stroke-linejoin:miter;stroke-miterlimit:4;stroke-dasharray:none;stroke-dashoffset:0;stroke-opacity:1;paint-order:normal" />
      <rect
         style="opacity:1;vector-effect:none;fill:#464159;fill-opacity:1;fill-rule:nonzero;stroke:none;stroke-width:0.52916664;stroke-linecap:butt;stroke-linejoin:miter;stroke-miterlimit:4;stroke-dasharray:none;stroke-dashoffset:0;stroke-opacity:1;paint-order:normal"
         id="rect889"
         width="13.229167"
         height="13.229167"
         x="66.145836"
         y="217.62503" />
      <rect
         style="opacity:1;vector-effect:none;fill:#464159;fill-opacity:1;fill-rule:nonzero;stroke:none;stroke-width:0.52916664;stroke-linecap:butt;stroke-linejoin:miter;stroke-miterlimit:4;stroke-dasharray:none;stroke-dashoffset:0;stroke-opacity:1;paint-order:normal"
         id="rect891"
         width="13.229167"
         height="13.229167"
         x="92.604172"
         y="217.62503" />
      <rect
         style="opacity:1;vector-effect:none;fill:#464159;fill-opacity:1;fill-rule:nonzero;stroke:none;stroke-width:0.52916664;stroke-linecap:butt;stroke-linejoin:miter;stroke-miterlimit:4;stroke-dasharray:none;stroke-dashoffset:0;stroke-opacity:1;paint-order:normal"
         id="rect895"
         width="13.229167"
         height="13.229167"
         x="0"
         y="204.39587" />
      <rect
         style="opacity:1;vector-effect:none;fill:#464159;fill-opacity:1;fill-rule:nonzero;stroke:none;stroke-width:0.52916664;stroke-linecap:butt;stroke-linejoin:miter;stroke-miterlimit:4;stroke-dasharray:none;stroke-dashoffset:0;stroke-opacity:1;paint-order:normal"
         id="rect897"
         width="13.229167"
         height="13.229167"
         x="26.458334"
         y="204.39587" />
      <rect
         y="204.39587"
         x="52.916668"
         height="13.229167"
         width="13.229167"
         id="rect899"
         style="opacity:1;vector-effect:none;fill:#464159;fill-opacity:1;fill-rule:nonzero;stroke:none;stroke-width:0.52916664;stroke-linecap:butt;stroke-linejoin:miter;stroke-miterlimit:4;stroke-dasharray:none;stroke-dashoffset:0;stroke-opacity:1;paint-order:normal" />
      <rect
         y="204.39587"
         x="79.375"
         height="13.229167"
         width="13.229167"
         id="rect901"
         style="opacity:1;vector-effect:none;fill:#464159;fill-opacity:1;fill-rule:nonzero;stroke:none;stroke-width:0.52916664;stroke-linecap:butt;stroke-linejoin:miter;stroke-miterlimit:4;stroke-dasharray:none;stroke-dashoffset:0;stroke-opacity:1;paint-order:normal" />
      <rect
         style="opacity:1;vector-effect:none;fill:#464159;fill-opacity:1;fill-rule:nonzero;stroke:none;stroke-width:0.52916664;stroke-linecap:butt;stroke-linejoin:miter;stroke-miterlimit:4;stroke-dasharray:none;stroke-dashoffset:0;stroke-opacity:1;paint-order:normal"
         id="rect903"
         width="13.229167"
         height="13.229167"
         x="13.229167"
         y="191.16672" />
      <rect
         style="opacity:1;vector-effect:none;fill:#464159;fill-opacity:1;fill-rule:nonzero;stroke:none;stroke-width:0.52916664;stroke-linecap:butt;stroke-linejoin:miter;stroke-miterlimit:4;stroke-dasharray:none;stroke-dashoffset:0;stroke-opacity:1;paint-order:normal"
         id="rect905"
         width="13.229167"
         height="13.229167"
         x="39.6875"
         y="191.16672" />
      <rect
         y="191.16672"
         x="66.145836"
         height="13.229167"
         width="13.229167"
         id="rect907"
         style="opacity:1;vector-effect:none;fill:#464159;fill-opacity:1;fill-rule:nonzero;stroke:none;stroke-width:0.52916664;stroke-linecap:butt;stroke-linejoin:miter;stroke-miterlimit:4;stroke-dasharray:none;stroke-dashoffset:0;stroke-opacity:1;paint-order:normal" />
      <rect
         y="191.16672"
         x="92.604172"
         height="13.229167"
         width="13.229167"
         id="rect909"
         style="opacity:1;vector-effect:none;fill:#464159;fill-opacity:1;fill-rule:nonzero;stroke:none;stroke-width:0.52916664;stroke-linecap:butt;stroke-linejoin:miter;stroke-miterlimit:4;stroke-dasharray:none;stroke-dashoffset:0;stroke-opacity:1;paint-order:normal" />
    </g>
    <g
       id="g1108"
       style="fill:#ffffff;fill-opacity:1">
      <path
         d="m 11.887126,296.11334 q -0.0347,-0.0694 -0.05639,-0.24725 -0.279773,0.29062 -0.667984,0.29062 -0.347005,0 -0.570389,-0.19519 -0.221215,-0.19736 -0.221215,-0.49882 0,-0.36652 0.277603,-0.56822 0.279773,-0.20386 0.785098,-0.20386 h 0.390381 v -0.18435 q 0,-0.21037 -0.12579,-0.33399 -0.125789,-0.12579 -0.370861,-0.12579 -0.214709,0 -0.360017,0.10844 -0.145308,0.10844 -0.145308,0.26242 H 10.41886 q 0,-0.17567 0.123621,-0.33833 0.125789,-0.16483 0.338329,-0.26025 0.21471,-0.0954 0.470626,-0.0954 0.405561,0 0.635452,0.20387 0.22989,0.20169 0.238566,0.55737 v 1.08005 q 0,0.32315 0.08241,0.51401 v 0.0347 z m -0.665815,-0.3058 q 0.188684,0 0.357848,-0.0976 0.169165,-0.0976 0.245072,-0.25374 v -0.48147 h -0.314473 q -0.737385,0 -0.737385,0.43158 0,0.18869 0.12579,0.29496 0.125789,0.10627 0.323148,0.10627 z"
         style="font-style:normal;font-variant:normal;font-weight:normal;font-stretch:normal;font-size:medium;line-height:1.25;font-family:roboto;-inkscape-font-specification:roboto;letter-spacing:10.99343872px;word-spacing:0px;fill:#ffffff;fill-opacity:1;stroke:none;stroke-width:0.26458332"
         id="path983"
         inkscape:connector-curvature="0" />
      <path
         d="m 25.537031,294.88801 q 0,0.53786 -0.247241,0.86534 -0.247241,0.32532 -0.663647,0.32532 -0.4446,0 -0.687503,-0.31447 l -0.01952,0.2711 h -0.368692 v -3.33125 h 0.401224 v 1.24271 q 0.242903,-0.30146 0.670153,-0.30146 0.427249,0 0.670152,0.32315 0.245073,0.32315 0.245073,0.88486 z m -0.401225,-0.0455 q 0,-0.4099 -0.158321,-0.63329 -0.15832,-0.22338 -0.455443,-0.22338 -0.396887,0 -0.570389,0.36869 v 1.01499 q 0.184346,0.36869 0.574726,0.36869 0.288448,0 0.448938,-0.22338 0.160489,-0.22339 0.160489,-0.67232 z"
         style="font-style:normal;font-variant:normal;font-weight:normal;font-stretch:normal;font-size:medium;line-height:1.25;font-family:roboto;-inkscape-font-specification:roboto;letter-spacing:10.99343872px;word-spacing:0px;fill:#ffffff;fill-opacity:1;stroke:none;stroke-width:0.26458332"
         id="path985"
         inkscape:connector-curvature="0" />
      <path
         d="m 37.833622,295.75119 q 0.214709,0 0.375199,-0.13013 0.16049,-0.13013 0.17784,-0.32532 h 0.379536 q -0.01084,0.2017 -0.138802,0.38388 -0.127958,0.18217 -0.342667,0.29061 -0.21254,0.10844 -0.451106,0.10844 -0.4793,0 -0.76341,-0.31881 -0.281941,-0.32098 -0.281941,-0.87619 v -0.0672 q 0,-0.34267 0.125789,-0.60943 0.125789,-0.26676 0.360017,-0.41423 0.236397,-0.14748 0.557376,-0.14748 0.394718,0 0.654972,0.2364 0.262422,0.23639 0.279772,0.61376 h -0.379536 q -0.01735,-0.22772 -0.173502,-0.37303 -0.153984,-0.14747 -0.381706,-0.14747 -0.305798,0 -0.474962,0.22121 -0.166996,0.21905 -0.166996,0.63545 v 0.0759 q 0,0.40556 0.166996,0.62461 0.166996,0.21905 0.477131,0.21905 z"
         style="font-style:normal;font-variant:normal;font-weight:normal;font-stretch:normal;font-size:medium;line-height:1.25;font-family:roboto;-inkscape-font-specification:roboto;letter-spacing:10.99343872px;word-spacing:0px;fill:#ffffff;fill-opacity:1;stroke:none;stroke-width:0.26458332"
         id="path987"
         inkscape:connector-curvature="0" />
      <path
         d="m 50.01527,294.84247 q 0,-0.54003 0.255916,-0.86751 0.255916,-0.32966 0.670153,-0.32966 0.412068,0 0.652802,0.28194 v -1.22319 h 0.401224 v 3.33125 h -0.368692 l -0.01952,-0.25158 q -0.240735,0.29495 -0.670153,0.29495 -0.407731,0 -0.665815,-0.33399 -0.255916,-0.33399 -0.255916,-0.87185 z m 0.401224,0.0455 q 0,0.39906 0.164827,0.62461 0.164827,0.22555 0.455444,0.22555 0.381705,0 0.557376,-0.34266 v -1.07789 q -0.180009,-0.33182 -0.553039,-0.33182 -0.294954,0 -0.459781,0.22772 -0.164827,0.22772 -0.164827,0.67449 z"
         style="font-style:normal;font-variant:normal;font-weight:normal;font-stretch:normal;font-size:medium;line-height:1.25;font-family:roboto;-inkscape-font-specification:roboto;letter-spacing:10.99343872px;word-spacing:0px;fill:#ffffff;fill-opacity:1;stroke:none;stroke-width:0.26458332"
         id="path989"
         inkscape:connector-curvature="0" />
      <path
         d="m 64.309308,296.07867 q -0.477131,0 -0.776423,-0.3123 -0.299291,-0.31448 -0.299291,-0.83932 v -0.0737 q 0,-0.34917 0.132295,-0.62244 0.134464,-0.27543 0.37303,-0.42942 0.240735,-0.15615 0.520507,-0.15615 0.457613,0 0.71136,0.30146 0.253747,0.30146 0.253747,0.86318 v 0.16699 h -1.589715 q 0.0087,0.34701 0.201696,0.56172 0.19519,0.21254 0.494482,0.21254 0.21254,0 0.360017,-0.0868 0.147477,-0.0867 0.258085,-0.22989 l 0.245072,0.19086 q -0.294954,0.45327 -0.884862,0.45327 z m -0.04988,-2.10371 q -0.242903,0 -0.40773,0.17784 -0.164828,0.17567 -0.203866,0.49448 h 1.175479 v -0.0304 q -0.01735,-0.30579 -0.164827,-0.47279 -0.147477,-0.16916 -0.399056,-0.16916 z"
         style="font-style:normal;font-variant:normal;font-weight:normal;font-stretch:normal;font-size:medium;line-height:1.25;font-family:roboto;-inkscape-font-specification:roboto;letter-spacing:10.99343872px;word-spacing:0px;fill:#ffffff;fill-opacity:1;stroke:none;stroke-width:0.26458332"
         id="path991"
         inkscape:connector-curvature="0" />
      <path
         d="m 77.406177,296.07862 v -2.03649 H 77.035315 V 293.732 h 0.370862 v -0.24074 q 0,-0.37737 0.201696,-0.5834 0.201697,-0.20603 0.570389,-0.20603 0.138802,0 0.275435,0.0369 l -0.02169,0.32531 q -0.101932,-0.0195 -0.216878,-0.0195 -0.19519,0 -0.30146,0.11495 -0.10627,0.11278 -0.10627,0.32532 v 0.24724 h 0.500988 v 0.31013 h -0.500988 v 2.03649 z"
         style="font-style:normal;font-variant:normal;font-weight:normal;font-stretch:normal;font-size:medium;line-height:1.25;font-family:roboto;-inkscape-font-specification:roboto;letter-spacing:10.99343872px;word-spacing:0px;fill:#ffffff;fill-opacity:1;stroke:none;stroke-width:0.26458332"
         id="path993"
         inkscape:connector-curvature="0" />
      <path
         d="m 89.700596,293.96194 q 0,-0.5487 0.253747,-0.87185 0.253747,-0.32532 0.672322,-0.32532 0.429418,0 0.670152,0.30363 l 0.01952,-0.26025 h 0.366524 v 2.29023 q 0,0.45544 -0.271097,0.71786 -0.268929,0.26243 -0.724373,0.26243 -0.253747,0 -0.49665,-0.10844 -0.242903,-0.10844 -0.370861,-0.29713 l 0.208203,-0.24073 q 0.258084,0.31881 0.631114,0.31881 0.292786,0 0.455444,-0.16483 0.164827,-0.16482 0.164827,-0.46412 v -0.20169 q -0.240734,0.2776 -0.65714,0.2776 -0.412068,0 -0.667984,-0.33182 -0.253747,-0.33183 -0.253748,-0.90438 z m 0.403393,0.0455 q 0,0.39689 0.162658,0.62461 0.162659,0.22555 0.455444,0.22555 0.379536,0 0.557376,-0.34483 v -1.07138 q -0.184346,-0.33616 -0.553038,-0.33616 -0.292786,0 -0.457613,0.22772 -0.164827,0.22772 -0.164827,0.67449 z"
         style="font-style:normal;font-variant:normal;font-weight:normal;font-stretch:normal;font-size:medium;line-height:1.25;font-family:roboto;-inkscape-font-specification:roboto;letter-spacing:10.99343872px;word-spacing:0px;fill:#ffffff;fill-opacity:1;stroke:none;stroke-width:0.26458332"
         id="path995"
         inkscape:connector-curvature="0" />
      <path
         d="m 103.46762,294.01619 q 0.26676,-0.32749 0.69401,-0.32749 0.74389,0 0.7504,0.83932 v 1.55068 h -0.40123 v -1.55285 q -0.002,-0.25375 -0.11711,-0.3752 -0.11278,-0.12145 -0.35351,-0.12145 -0.19519,0 -0.34267,0.1041 -0.14748,0.1041 -0.22989,0.27327 v 1.67213 h -0.40123 v -3.33125 h 0.40123 z"
         style="font-style:normal;font-variant:normal;font-weight:normal;font-stretch:normal;font-size:medium;line-height:1.25;font-family:roboto;-inkscape-font-specification:roboto;letter-spacing:10.99343872px;word-spacing:0px;fill:#ffffff;fill-opacity:1;stroke:none;stroke-width:0.26458332"
         id="path997"
         inkscape:connector-curvature="0" />
      <path
         d="m 2.9326171,192.95519 q 0,0.24578 -0.1307805,0.43744 -0.1285257,0.19166 -0.3494997,0.2999 0.2570514,0.11048 0.4058706,0.32244 0.151074,0.21195 0.151074,0.48028 0,0.42616 -0.2886191,0.6787 -0.2863642,0.25254 -0.7553702,0.25254 -0.4735157,0 -0.7598799,-0.25254 -0.28410933,-0.25479 -0.28410933,-0.6787 0,-0.26607 0.14430953,-0.48028 0.1465643,-0.21421 0.4036157,-0.3247 -0.2187192,-0.10823 -0.34499,-0.29989 -0.12627079,-0.19166 -0.12627079,-0.43519 0,-0.41489 0.26607069,-0.65841 0.2660707,-0.24352 0.7012541,-0.24352 0.4329286,0 0.6989993,0.24352 0.2683256,0.24352 0.2683256,0.65841 z m -0.3404803,1.53104 q 0,-0.27509 -0.1758773,-0.44871 -0.1736224,-0.17363 -0.455477,-0.17363 -0.2818545,0 -0.4532221,0.17137 -0.1691127,0.17137 -0.1691127,0.45097 0,0.2796 0.164603,0.43969 0.1668579,0.16009 0.4622415,0.16009 0.2931288,0 0.4599867,-0.16009 0.1668579,-0.16235 0.1668579,-0.43969 z m -0.6268446,-2.09024 q -0.2457772,0 -0.399106,0.15333 -0.1510741,0.15108 -0.1510741,0.41264 0,0.25029 0.1488192,0.40587 0.1510741,0.15333 0.4013609,0.15333 0.2502869,0 0.3991061,-0.15333 0.151074,-0.15558 0.151074,-0.40587 0,-0.25029 -0.1555837,-0.40813 -0.1555837,-0.15784 -0.3945964,-0.15784 z"
         style="font-style:normal;font-variant:normal;font-weight:normal;font-stretch:normal;font-size:medium;line-height:1.25;font-family:roboto;-inkscape-font-specification:roboto;letter-spacing:9.921875px;word-spacing:0px;writing-mode:vertical-lr;text-orientation:upright;fill:#ffffff;fill-opacity:1;stroke:none;stroke-width:0.26458332"
         id="path1059"
         inkscape:connector-curvature="0" />
      <path
         d="m 3.140062,205.51697 -1.3596664,3.04854 H 1.3429574 L 2.6981141,205.6252 H 0.92130297 v -0.34273 H 3.140062 Z"
         style="font-style:normal;font-variant:normal;font-weight:normal;font-stretch:normal;font-size:medium;line-height:1.25;font-family:roboto;-inkscape-font-specification:roboto;letter-spacing:9.921875px;word-spacing:0px;writing-mode:vertical-lr;text-orientation:upright;fill:#ffffff;fill-opacity:1;stroke:none;stroke-width:0.26458332"
         id="path1061"
         inkscape:connector-curvature="0" />
      <path
         d="m 2.5335106,218.51165 v 0.35401 h -0.076664 q -0.4870447,0.009 -0.7756638,0.28862 -0.288619,0.2796 -0.3337158,0.78694 0.2593062,-0.29764 0.7080187,-0.29764 0.4284189,0 0.6832155,0.30215 0.2570513,0.30214 0.2570513,0.78017 0,0.50734 -0.2773449,0.81174 -0.27509,0.3044 -0.7395863,0.3044 -0.4712609,0 -0.7643896,-0.36077 -0.29312873,-0.36303 -0.29312873,-0.9335 v -0.1601 q 0,-0.90644 0.38557703,-1.38447 0.3878319,-0.48028 1.1522214,-0.49155 z m -0.5479252,1.47917 q -0.2142095,0 -0.3945964,0.12853 -0.1803869,0.12852 -0.2502869,0.32244 v 0.15333 q 0,0.40587 0.1826418,0.6539 0.1826417,0.24803 0.455477,0.24803 0.2818545,0 0.4419479,-0.20744 0.1623482,-0.20745 0.1623482,-0.54342 0,-0.33822 -0.164603,-0.54567 -0.1623483,-0.2097 -0.4329286,-0.2097 z"
         style="font-style:normal;font-variant:normal;font-weight:normal;font-stretch:normal;font-size:medium;line-height:1.25;font-family:roboto;-inkscape-font-specification:roboto;letter-spacing:9.921875px;word-spacing:0px;writing-mode:vertical-lr;text-orientation:upright;fill:#ffffff;fill-opacity:1;stroke:none;stroke-width:0.26458332"
         id="path1063"
         inkscape:connector-curvature="0" />
      <path
         d="m 1.0385546,233.37781 0.1668579,-1.63702 h 1.6821081 v 0.38558 H 1.5594219 l -0.099213,0.89517 q 0.2412675,-0.14205 0.5479252,-0.14205 0.4487125,0 0.7125284,0.29764 0.2638158,0.29538 0.2638158,0.80046 0,0.50734 -0.27509,0.80047 -0.2728352,0.29087 -0.7643896,0.29087 -0.4351834,0 -0.7102735,-0.24126 -0.27509001,-0.24127 -0.31342223,-0.66744 H 1.3158995 q 0.038332,0.28186 0.2006805,0.42617 0.1623482,0.14205 0.4284189,0.14205 0.2908739,0 0.455477,-0.19842 0.1668579,-0.19843 0.1668579,-0.54793 0,-0.3292 -0.1803869,-0.52763 -0.1781321,-0.20068 -0.4757705,-0.20068 -0.2728352,0 -0.428419,0.11951 l -0.110487,0.0902 z"
         style="font-style:normal;font-variant:normal;font-weight:normal;font-stretch:normal;font-size:medium;line-height:1.25;font-family:roboto;-inkscape-font-specification:roboto;letter-spacing:9.921875px;word-spacing:0px;writing-mode:vertical-lr;text-orientation:upright;fill:#ffffff;fill-opacity:1;stroke:none;stroke-width:0.26458332"
         id="path1065"
         inkscape:connector-curvature="0" />
      <path
         d="m 2.8356591,247.15039 h 0.455477 v 0.34048 h -0.455477 v 0.76214 H 2.4162596 v -0.76214 H 0.92130297 v -0.24578 l 1.47015343,-2.27513 h 0.4442027 z m -1.4408405,0 h 1.021441 v -1.60995 l -0.049606,0.0902 z"
         style="font-style:normal;font-variant:normal;font-weight:normal;font-stretch:normal;font-size:medium;line-height:1.25;font-family:roboto;-inkscape-font-specification:roboto;letter-spacing:9.921875px;word-spacing:0px;writing-mode:vertical-lr;text-orientation:upright;fill:#ffffff;fill-opacity:1;stroke:none;stroke-width:0.26458332"
         id="path1067"
         inkscape:connector-curvature="0" />
      <path
         d="m 1.5887346,259.68278 h 0.3134222 q 0.2953836,-0.005 0.4644964,-0.15558 0.1691127,-0.15107 0.1691127,-0.40813 0,-0.57723 -0.5749833,-0.57723 -0.2705804,0 -0.4329286,0.15558 -0.1600934,0.15333 -0.1600934,0.40813 H 0.95061584 q 0,-0.39009 0.28410936,-0.64714 0.2863643,-0.25931 0.7260574,-0.25931 0.4644963,0 0.7283122,0.24578 0.2638158,0.24578 0.2638158,0.68321 0,0.21421 -0.1397998,0.41489 -0.137545,0.20068 -0.3765577,0.2999 0.2705804,0.0857 0.4171447,0.28411 0.1488192,0.19842 0.1488192,0.48479 0,0.44194 -0.288619,0.70125 -0.2886191,0.25931 -0.7508606,0.25931 -0.4622415,0 -0.7531154,-0.25029 -0.28861903,-0.25029 -0.28861903,-0.66067 H 1.3407025 q 0,0.25931 0.1691128,0.41489 0.1691127,0.15559 0.4532221,0.15559 0.3021481,0 0.4622415,-0.15784 0.1600934,-0.15784 0.1600934,-0.45322 0,-0.28637 -0.1758773,-0.4397 -0.1758772,-0.15333 -0.5073382,-0.15784 H 1.5887346 Z"
         style="font-style:normal;font-variant:normal;font-weight:normal;font-stretch:normal;font-size:medium;line-height:1.25;font-family:roboto;-inkscape-font-specification:roboto;letter-spacing:9.921875px;word-spacing:0px;writing-mode:vertical-lr;text-orientation:upright;fill:#ffffff;fill-opacity:1;stroke:none;stroke-width:0.26458332"
         id="path1069"
         inkscape:connector-curvature="0" />
      <path
         d="M 3.1355524,274.7564 H 0.98443839 v -0.29989 L 2.1208759,273.1938 q 0.2525417,-0.28637 0.3472449,-0.4645 0.096958,-0.18039 0.096958,-0.37205 0,-0.25705 -0.1555837,-0.42165 -0.1555837,-0.1646 -0.4148899,-0.1646 -0.3111674,0 -0.4847899,0.17813 -0.1713675,0.17587 -0.1713675,0.49155 H 0.92130297 q 0,-0.45322 0.29087383,-0.73282 0.2931288,-0.2796 0.7824283,-0.2796 0.4577318,0 0.7238025,0.24127 0.2660707,0.23901 0.2660707,0.63812 0,0.48479 -0.6178252,1.15447 l -0.8793862,0.9538 h 1.6482855 z"
         style="font-style:normal;font-variant:normal;font-weight:normal;font-stretch:normal;font-size:medium;line-height:1.25;font-family:roboto;-inkscape-font-specification:roboto;letter-spacing:9.921875px;word-spacing:0px;writing-mode:vertical-lr;text-orientation:upright;fill:#ffffff;fill-opacity:1;stroke:none;stroke-width:0.26458332"
         id="path1071"
         inkscape:connector-curvature="0" />
      <path
         d="M 2.1817566,287.95624 H 1.762357 v -2.78021 l -0.84105403,0.30891 v -0.37881 l 1.19506343,-0.44872 h 0.06539 z"
         style="font-style:normal;font-variant:normal;font-weight:normal;font-stretch:normal;font-size:medium;line-height:1.25;font-family:roboto;-inkscape-font-specification:roboto;letter-spacing:9.921875px;word-spacing:0px;writing-mode:vertical-lr;text-orientation:upright;fill:#ffffff;fill-opacity:1;stroke:none;stroke-width:0.26458332"
         id="path1073"
         inkscape:connector-curvature="0" />
    </g>
  </g>
</svg>
