<?xml version="1.0" encoding="UTF-8" standalone="no"?>
<svg
   xmlns:dc="http://purl.org/dc/elements/1.1/"
   xmlns:cc="http://creativecommons.org/ns#"
   xmlns:rdf="http://www.w3.org/1999/02/22-rdf-syntax-ns#"
   xmlns:svg="http://www.w3.org/2000/svg"
   xmlns="http://www.w3.org/2000/svg"
   xmlns:sodipodi="http://sodipodi.sourceforge.net/DTD/sodipodi-0.dtd"
   xmlns:inkscape="http://www.inkscape.org/namespaces/inkscape"
   inkscape:version="1.0beta1 (fe3e306, 2019-09-17)"
   sodipodi:docname="ChessUp - no openings.svg"
   id="svg8"
   version="1.1"
   viewBox="0 0 285.75002 285.75001"
   height="1080"
   width="1080">
  <defs
     id="defs2">
    <pattern
       y="0"
       x="0"
       height="6"
       width="6"
       patternUnits="userSpaceOnUse"
       id="EMFhbasepattern" />
    <clipPath
       clipPathUnits="userSpaceOnUse"
       id="clipPath1042">
      <circle
         style="opacity:1;fill:#a51d2d;fill-opacity:1;fill-rule:evenodd;stroke:none;stroke-width:0.999998;stroke-miterlimit:4;stroke-dasharray:none;stroke-opacity:1"
         id="circle1044"
         cx="162.97832"
         cy="101.74814"
         r="160.2619"
         transform="rotate(14.111509)" />
    </clipPath>
  </defs>
  <sodipodi:namedview
     inkscape:window-maximized="1"
     inkscape:window-y="-8"
     inkscape:window-x="1358"
     inkscape:window-height="1017"
     inkscape:window-width="1920"
     inkscape:snap-page="false"
     units="px"
     inkscape:showpageshadow="false"
     showgrid="false"
     inkscape:document-rotation="0"
     inkscape:current-layer="svg8"
     inkscape:document-units="mm"
     inkscape:cy="649.42327"
     inkscape:cx="696.29299"
     inkscape:zoom="0.9899495"
     inkscape:pageshadow="2"
     inkscape:pageopacity="0"
     borderopacity="1.0"
     bordercolor="#666666"
     pagecolor="#262626"
     id="base"
     inkscape:snap-midpoints="false"
     inkscape:snap-smooth-nodes="false"
     inkscape:snap-global="true" />
  <metadata
     id="metadata5">
    <rdf:RDF>
      <cc:Work
         rdf:about="">
        <dc:format>image/svg+xml</dc:format>
        <dc:type
           rdf:resource="http://purl.org/dc/dcmitype/StillImage" />
        <dc:title></dc:title>
      </cc:Work>
    </rdf:RDF>
  </metadata>
  <ellipse
     style="opacity:1;fill:#141413;fill-opacity:1;fill-rule:evenodd;stroke:none;stroke-width:1;stroke-miterlimit:4;stroke-dasharray:none;stroke-opacity:1"
     id="path1038"
     cx="101.46812"
     cy="245.7641"
     rx="36.482288"
     ry="12.160764"
     inkscape:label="shadow" />
  <g
     id="g1034"
     transform="rotate(-14.111509,264.32034,221.12225)"
     inkscape:label="graphic"
     clip-path="url(#clipPath1042)">
    <g
       inkscape:label="hand below"
       id="g997">
      <path
         inkscape:connector-curvature="0"
         id="path880"
         style="opacity:1;fill:#000000;fill-opacity:1;fill-rule:evenodd;stroke:none;stroke-width:1;stroke-miterlimit:4;stroke-dasharray:none;stroke-opacity:1;stop-opacity:1"
         d="m 143.45688,64.879759 -27.46189,7.282759 -3.73621,16.283763 c 0,0 6.66198,-0.330584 8.12664,-0.803053 0,0 15.4497,5.480878 26.69449,1.275892 l 3.25923,-0.452686 z m -79.083033,31.220833 -5.693191,5.457028 c -1.511906,3.85064 3.96875,6.18929 3.96875,6.18929 l 5.663718,-5.8268 z"
         sodipodi:nodetypes="cccccccccccc" />
      <path
         inkscape:connector-curvature="0"
         id="path882"
         d="m 80.013814,138.64606 c 0,0 -2.572469,7.6506 -7.583773,8.0515 -5.011303,0.4009 -5.87993,-2.97337 -8.352173,-16.80457 0,0 -3.601678,-7.71219 -2.278761,-16.31115 1.322916,-8.59895 3.779762,-24.85193 3.779762,-29.860114 0,-5.008185 10.299851,-9.543899 10.299851,-9.543899 0,0 28.25372,-18.615327 32.50595,-22.962053 4.25223,-4.346727 8.78795,-10.205358 15.40253,-8.882441"
         style="opacity:1;fill:#0e0e0d;fill-opacity:1;fill-rule:evenodd;stroke:none;stroke-width:1;stroke-miterlimit:4;stroke-dasharray:none;stroke-opacity:1;stop-opacity:1" />
      <g
         id="g990">
        <path
           style="opacity:1;fill:#141413;fill-opacity:1;fill-rule:evenodd;stroke:none;stroke-width:1;stroke-miterlimit:4;stroke-dasharray:none;stroke-opacity:1;stop-opacity:1"
           d="m 340.55655,38.648065 c -7.55954,0.850445 -75.97322,3.118303 -95.06102,2.740327 -19.0878,-0.377976 -14.17411,-0.188989 -33.82887,2.55134 -19.65476,2.740327 -75.21726,-1.511906 -83.06026,-2.55134 -7.84301,-1.039434 -16.91444,13.418156 -18.61533,15.308035 -1.70089,1.889881 -27.137517,25.889854 -28.139777,28.428915 -1.002263,2.539061 -0.334095,5.144939 -0.400905,8.485809 -0.06682,3.340867 -2.453365,16.474409 -3.209319,20.821139 -0.755952,4.34673 1.039437,19.18229 1.937128,25.51339 11.032384,0.91083 13.138288,-20.30808 13.748886,-24.28497 -0.751454,-0.7513 -2.998464,-14.3362 7.559527,-21.639133 -0.16575,-0.345915 8.01999,-14.540152 18.42634,-14.079613 -1.01644,-3.218742 12.42622,-12.590541 19.93824,-7.9375 l 0.66701,-13.261947 z"
           id="path878"
           inkscape:connector-curvature="0"
           sodipodi:nodetypes="cssssccsccccccc" />
        <path
           inkscape:connector-curvature="0"
           id="path916"
           d="m 80.178197,139.94568 c 13.894951,9.67366 13.727167,-18.50615 13.748886,-24.28497 0,0 4.44122,-6.89806 7.559527,-21.639133 0,0 13.04018,-4.063244 18.42634,-14.079613 0,0 15.68601,-2.267857 19.93824,-7.9375 l 7.48494,-5.935325 -6.81793,-7.326622 c 0,0 -20.18795,3.736317 -31.1715,16.799789 -2.47823,2.947528 -20.002319,21.329205 -19.385057,37.590534 0.545569,14.37262 -9.783446,26.81284 -9.783446,26.81284 z"
           style="opacity:1;fill:#141413;fill-opacity:1;fill-rule:evenodd;stroke:none;stroke-width:1;stroke-miterlimit:4;stroke-dasharray:none;stroke-opacity:1;stop-opacity:1"
           inkscape:label="shadow"
           sodipodi:nodetypes="cccccccssc" />
      </g>
    </g>
    <g
       style="fill:#adada7;fill-opacity:1"
       inkscape:label="pawn stilized"
       transform="rotate(6.3196159,261.12976,615.31781)"
       id="g978">
      <circle
         style="opacity:1;fill:#adada7;fill-opacity:1;fill-rule:evenodd;stroke:none;stroke-width:1;stroke-miterlimit:4;stroke-dasharray:none;stroke-opacity:1"
         id="path968"
         cx="48.843506"
         cy="153.47952"
         r="9.822154" />
      <path
         id="rect970"
         style="opacity:1;fill:#adada7;fill-opacity:1;fill-rule:evenodd;stroke:none;stroke-width:1;stroke-miterlimit:4;stroke-dasharray:none;stroke-opacity:1"
         d="m 44.500378,158.29038 h 8.686259 l 3.474504,30.46872 H 41.025874 Z"
         inkscape:connector-curvature="0"
         sodipodi:nodetypes="ccccc" />
      <rect
         style="opacity:1;fill:#adada7;fill-opacity:1;fill-rule:evenodd;stroke:none;stroke-width:1;stroke-miterlimit:4;stroke-dasharray:none;stroke-opacity:1"
         id="rect973"
         width="27.395124"
         height="9.4880686"
         x="35.145947"
         y="185.01732" />
    </g>
    <path
       inkscape:label="hand above"
       style="display:inline;opacity:1;fill:#141413;fill-opacity:1;fill-rule:evenodd;stroke:none;stroke-width:1;stroke-miterlimit:4;stroke-dasharray:none;stroke-opacity:1;stop-opacity:1"
       d="m 139.11379,69.490076 c 0,0 1.06908,8.953529 9.6217,21.916101 0,0 1.32106,4.032811 -10.11272,13.009743 -11.43378,8.97694 -10.11087,6.3311 -15.21354,10.29985 -5.10268,3.96875 -23.517245,16.2463 -16.63505,26.80344 6.88219,10.55715 17.3057,2.87315 17.3057,2.87315 0,0 8.28535,-5.0113 10.35669,-6.1472 2.07134,-1.13589 9.48807,-8.21854 10.95805,-9.88897 1.46998,-1.67043 12.9774,-10.90009 17.04065,-12.41199 4.06324,-1.51191 9.21317,-4.29948 10.3471,-5.48066 0,0 16.77269,0.0945 52.20796,-21.166665 0,0 4.44122,-5.197173 109.32961,11.811755 L 340.55655,38.648065 128.0221,58.799296 Z"
       id="path876"
       inkscape:connector-curvature="0" />
  </g>
</svg>
