<?xml version="1.0" encoding="UTF-8" standalone="no"?>
<svg
   xmlns:dc="http://purl.org/dc/elements/1.1/"
   xmlns:cc="http://creativecommons.org/ns#"
   xmlns:rdf="http://www.w3.org/1999/02/22-rdf-syntax-ns#"
   xmlns:svg="http://www.w3.org/2000/svg"
   xmlns="http://www.w3.org/2000/svg"
   xmlns:sodipodi="http://sodipodi.sourceforge.net/DTD/sodipodi-0.dtd"
   xmlns:inkscape="http://www.inkscape.org/namespaces/inkscape"
   sodipodi:docname="logo.svg"
   inkscape:version="1.0beta1 (fe3e306, 2019-09-17)"
   id="svg8"
   version="1.1"
   viewBox="0 0 20 20"
   height="20mm"
   width="20mm">
  <defs
     id="defs2" />
  <sodipodi:namedview
     width="20mm"
     inkscape:window-maximized="1"
     inkscape:window-y="-8"
     inkscape:window-x="1358"
     inkscape:window-height="1017"
     inkscape:window-width="1920"
     showgrid="false"
     inkscape:document-rotation="0"
     inkscape:current-layer="g1069"
     inkscape:document-units="mm"
     inkscape:cy="74.999407"
     inkscape:cx="82.321242"
     inkscape:zoom="2.8"
     inkscape:pageshadow="2"
     inkscape:pageopacity="0.0"
     borderopacity="1.0"
     bordercolor="#666666"
     pagecolor="#ffffff"
     id="base" />
  <metadata
     id="metadata5">
    <rdf:RDF>
      <cc:Work
         rdf:about="">
        <dc:format>image/svg+xml</dc:format>
        <dc:type
           rdf:resource="http://purl.org/dc/dcmitype/StillImage" />
        <dc:title></dc:title>
      </cc:Work>
    </rdf:RDF>
  </metadata>
  <g
     id="layer1"
     inkscape:groupmode="layer"
     inkscape:label="Livello 1">
    <g
       inkscape:export-ydpi="245"
       inkscape:export-xdpi="245"
       id="g1069">
      <g
         style="stroke-width:2.07255"
         transform="matrix(0.48249833,0,0,0.48249833,-78.1035,-57.219508)"
         id="g870"
         inkscape:export-xdpi="117.65237"
         inkscape:export-ydpi="117.65237">
        <path
           inkscape:export-ydpi="245.11"
           inkscape:export-xdpi="245.11"
           sodipodi:nodetypes="sssscccsss"
           inkscape:connector-curvature="0"
           d="m 170.82656,118.59017 c -4.96025,0 -8.95346,3.99322 -8.95346,8.95347 v 23.54378 c 0,4.96026 3.99321,8.95346 8.95346,8.95346 h 6.62699 l 17.06092,-7.46311 8.80933,-12.19978 v -12.83435 c 0,-4.96025 -3.9932,-8.95347 -8.95346,-8.95347 z"
           style="opacity:1;fill:#5bf393;fill-opacity:1;fill-rule:evenodd;stroke-width:2.07254;stop-opacity:1"
           id="path1034" />
        <path
           inkscape:connector-curvature="0"
           transform="scale(0.26458333)"
           d="m 695.07422,469.61133 -3.85547,12.52929 -14.4375,-10.74218 -4.9375,11.90625 12.65039,7.15039 7.15039,76.17578 -33.70898,16.84961 7.49804,21.39844 h 69.19532 c 18.74744,0 33.83984,-15.09245 33.83984,-33.83985 v -48.17383 l -56.23047,-52.15234 -2.99609,4.89063 3.30078,12.10156 z"
           style="opacity:1;fill:#1f1f1e;fill-opacity:1;fill-rule:evenodd;stroke-width:7.83325;stop-opacity:1"
           id="path1036" />
        <path
           style="opacity:1;vector-effect:none;fill:#ffffff;fill-opacity:1;fill-rule:nonzero;stroke:none;stroke-width:2.3341;stroke-linecap:round;stroke-linejoin:miter;stroke-miterlimit:4;stroke-dasharray:none;stroke-dashoffset:0;stroke-opacity:1;paint-order:markers fill stroke;stop-opacity:1"
           d="m 176.59692,124.91729 0.57221,7.71528 2.91988,0.10065 -2.05918,18.25729 -4.25182,0.0638 0.301,3.32524 17.33988,-0.19558 -0.73449,-4.05936 -3.19074,0.002 -2.59419,-16.80167 4.58994,-0.31606 -1.04305,-8.46623 -1.87559,-0.12502 0.0246,3.73997 -2.3501,-0.069 -0.34028,-3.8371 -2.55931,0.19635 0.55698,3.75486 -2.58735,-0.0409 -0.25058,-3.43731 z"
           id="path1038"
           inkscape:connector-curvature="0"
           inkscape:export-xdpi="300"
           inkscape:export-ydpi="300" />
      </g>
    </g>
  </g>
</svg>
